EBGaramondVF-Xbold.ufo
<glyph name="dollar" format="1">
  <advance width="459"/>
  <unicode hex="0024"/>
  <outline>
    <contour>
      <point x="192" y="-74" type="curve" smooth="yes"/>
      <point x="210" y="-73"/>
      <point x="229" y="-70"/>
      <point x="231" y="-58" type="curve" smooth="yes"/>
      <point x="241" y="7" type="line" smooth="yes"/>
      <point x="241" y="13"/>
      <point x="245" y="14"/>
      <point x="250" y="15" type="curve" smooth="yes"/>
      <point x="352" y="18"/>
      <point x="430" y="108"/>
      <point x="430" y="230" type="curve" smooth="yes"/>
      <point x="430" y="315"/>
      <point x="381" y="365"/>
      <point x="292" y="405" type="curve"/>
      <point x="287" y="408"/>
      <point x="284" y="417"/>
      <point x="284" y="423" type="curve" smooth="yes"/>
      <point x="294" y="531" type="line"/>
      <point x="295" y="537"/>
      <point x="298" y="538"/>
      <point x="301" y="538" type="curve" smooth="yes"/>
      <point x="352" y="549"/>
      <point x="368" y="518"/>
      <point x="375" y="492" type="curve" smooth="yes"/>
      <point x="379" y="481"/>
      <point x="387" y="472"/>
      <point x="401" y="472" type="curve" smooth="yes"/>
      <point x="412" y="472"/>
      <point x="422" y="480"/>
      <point x="422" y="489" type="curve" smooth="yes"/>
      <point x="422" y="521"/>
      <point x="415" y="566"/>
      <point x="408" y="589" type="curve" smooth="yes"/>
      <point x="405" y="595"/>
      <point x="396" y="604"/>
      <point x="386" y="609" type="curve" smooth="yes"/>
      <point x="368" y="616"/>
      <point x="354" y="619"/>
      <point x="315" y="622" type="curve" smooth="yes"/>
      <point x="310" y="624"/>
      <point x="308" y="625"/>
      <point x="308" y="630" type="curve" smooth="yes"/>
      <point x="308" y="648"/>
      <point x="313" y="693"/>
      <point x="314" y="702" type="curve"/>
      <point x="314" y="709"/>
      <point x="308" y="717"/>
      <point x="301" y="717" type="curve" smooth="yes"/>
      <point x="288" y="717"/>
      <point x="244" y="714"/>
      <point x="242" y="701" type="curve" smooth="yes"/>
      <point x="236" y="642" type="line" smooth="yes"/>
      <point x="236" y="637"/>
      <point x="232" y="634"/>
      <point x="226" y="634" type="curve" smooth="yes"/>
      <point x="92" y="631"/>
      <point x="44" y="545"/>
      <point x="44" y="455" type="curve" smooth="yes"/>
      <point x="44" y="359"/>
      <point x="100" y="305"/>
      <point x="190" y="272" type="curve" smooth="yes"/>
      <point x="195" y="268"/>
      <point x="200" y="261"/>
      <point x="198" y="251" type="curve" smooth="yes"/>
      <point x="184" y="107" type="line" smooth="yes"/>
      <point x="182" y="102"/>
      <point x="177" y="99"/>
      <point x="173" y="101" type="curve"/>
      <point x="121" y="113"/>
      <point x="102" y="123"/>
      <point x="73" y="178" type="curve" smooth="yes"/>
      <point x="69" y="184"/>
      <point x="62" y="192"/>
      <point x="50" y="192" type="curve" smooth="yes"/>
      <point x="37" y="192"/>
      <point x="27" y="183"/>
      <point x="27" y="175" type="curve"/>
      <point x="29" y="149"/>
      <point x="31" y="100"/>
      <point x="36" y="76" type="curve" smooth="yes"/>
      <point x="38" y="68"/>
      <point x="44" y="61"/>
      <point x="49" y="58" type="curve" smooth="yes"/>
      <point x="82" y="37"/>
      <point x="134" y="20"/>
      <point x="165" y="17" type="curve" smooth="yes"/>
      <point x="170" y="16"/>
      <point x="174" y="13"/>
      <point x="174" y="7" type="curve"/>
      <point x="167" y="-54" type="line" smooth="yes"/>
      <point x="165" y="-67"/>
      <point x="178" y="-74"/>
    </contour>
    <contour>
      <point x="258" y="79" type="curve"/>
      <point x="253" y="79"/>
      <point x="251" y="82"/>
      <point x="251" y="86" type="curve"/>
      <point x="262" y="194" type="line" smooth="yes"/>
      <point x="263" y="197"/>
      <point x="267" y="202"/>
      <point x="270" y="199" type="curve"/>
      <point x="326" y="198"/>
      <point x="321" y="176"/>
      <point x="321" y="161" type="curve" smooth="yes"/>
      <point x="321" y="114"/>
      <point x="291" y="78"/>
    </contour>
    <contour>
      <point x="213" y="469" type="curve"/>
      <point x="164" y="482"/>
      <point x="162" y="490"/>
      <point x="162" y="518" type="curve" smooth="yes"/>
      <point x="162" y="546"/>
      <point x="181" y="571"/>
      <point x="222" y="568" type="curve"/>
      <point x="226" y="568"/>
      <point x="228" y="566"/>
      <point x="228" y="561" type="curve"/>
      <point x="222" y="473" type="line"/>
      <point x="221" y="466"/>
      <point x="218" y="465"/>
    </contour>
  </outline>
</glyph>
<glyph name="parenleft" format="1">
  <advance width="272"/>
  <unicode hex="0028"/>
  <outline>
    <contour>
      <point x="197" y="-214" type="curve" smooth="yes"/>
      <point x="212" y="-214"/>
      <point x="248" y="-203"/>
      <point x="248" y="-189" type="curve" smooth="yes"/>
      <point x="248" y="-175"/>
      <point x="241" y="-158"/>
      <point x="230" y="-143" type="curve" smooth="yes"/>
      <point x="213" y="-44"/>
      <point x="173" y="111"/>
      <point x="173" y="281" type="curve" smooth="yes"/>
      <point x="173" y="440"/>
      <point x="201" y="557"/>
      <point x="226" y="635" type="curve" smooth="yes"/>
      <point x="237" y="649"/>
      <point x="247" y="665"/>
      <point x="247" y="679" type="curve" smooth="yes"/>
      <point x="247" y="694"/>
      <point x="212" y="705"/>
      <point x="194" y="705" type="curve" smooth="yes"/>
      <point x="173" y="705"/>
      <point x="145" y="692"/>
      <point x="132" y="676" type="curve" smooth="yes"/>
      <point x="99" y="624"/>
      <point x="27" y="439"/>
      <point x="27" y="269" type="curve" smooth="yes"/>
      <point x="27" y="99"/>
      <point x="100" y="-120"/>
      <point x="130" y="-184" type="curve" smooth="yes"/>
      <point x="143" y="-200"/>
      <point x="175" y="-214"/>
    </contour>
  </outline>
</glyph>
<glyph name="asterisk" format="1">
  <advance width="235"/>
  <unicode hex="002A"/>
  <outline>
    <contour>
      <point x="128" y="365" type="curve" smooth="yes"/>
      <point x="141" y="365"/>
      <point x="156" y="378"/>
      <point x="154" y="396" type="curve"/>
      <point x="152" y="423"/>
      <point x="149" y="455"/>
      <point x="148" y="475" type="curve"/>
      <point x="162" y="466"/>
      <point x="172" y="450"/>
      <point x="186" y="444" type="curve" smooth="yes"/>
      <point x="199" y="439"/>
      <point x="217" y="448"/>
      <point x="217" y="466" type="curve" smooth="yes"/>
      <point x="217" y="477"/>
      <point x="214" y="487"/>
      <point x="208" y="492" type="curve"/>
      <point x="193" y="506"/>
      <point x="171" y="515"/>
      <point x="162" y="524" type="curve"/>
      <point x="201" y="572" type="line"/>
      <point x="207" y="578"/>
      <point x="209" y="590"/>
      <point x="209" y="598" type="curve" smooth="yes"/>
      <point x="209" y="610"/>
      <point x="198" y="620"/>
      <point x="190" y="620" type="curve" smooth="yes"/>
      <point x="184" y="620"/>
      <point x="176" y="616"/>
      <point x="172" y="613" type="curve"/>
      <point x="157" y="596"/>
      <point x="147" y="579"/>
      <point x="139" y="568" type="curve"/>
      <point x="136" y="643" type="line" smooth="yes"/>
      <point x="135" y="658"/>
      <point x="122" y="672"/>
      <point x="110" y="672" type="curve" smooth="yes"/>
      <point x="96" y="672"/>
      <point x="79" y="660"/>
      <point x="82" y="635" type="curve" smooth="yes"/>
      <point x="85" y="611"/>
      <point x="86" y="587"/>
      <point x="89" y="562" type="curve"/>
      <point x="72" y="573"/>
      <point x="59" y="584"/>
      <point x="48" y="593" type="curve"/>
      <point x="33" y="601"/>
      <point x="17" y="593"/>
      <point x="17" y="576" type="curve" smooth="yes"/>
      <point x="17" y="566"/>
      <point x="21" y="552"/>
      <point x="34" y="545" type="curve"/>
      <point x="45" y="535"/>
      <point x="64" y="522"/>
      <point x="73" y="513" type="curve"/>
      <point x="35" y="467" type="line"/>
      <point x="26" y="462"/>
      <point x="25" y="451"/>
      <point x="25" y="441" type="curve" smooth="yes"/>
      <point x="25" y="428"/>
      <point x="35" y="421"/>
      <point x="43" y="421" type="curve" smooth="yes"/>
      <point x="48" y="421"/>
      <point x="57" y="423"/>
      <point x="63" y="428" type="curve"/>
      <point x="77" y="442"/>
      <point x="88" y="459"/>
      <point x="97" y="470" type="curve"/>
      <point x="101" y="389" type="line" smooth="yes"/>
      <point x="103" y="372"/>
      <point x="119" y="365"/>
    </contour>
  </outline>
</glyph>
<glyph name="comma" format="1">
  <advance width="274"/>
  <unicode hex="002C"/>
  <outline>
    <contour>
      <point x="53" y="-147" type="curve" smooth="yes"/>
      <point x="114" y="-147"/>
      <point x="225" y="-73"/>
      <point x="225" y="42" type="curve" smooth="yes"/>
      <point x="225" y="105"/>
      <point x="183" y="152"/>
      <point x="126" y="152" type="curve" smooth="yes"/>
      <point x="88" y="152"/>
      <point x="55" y="125"/>
      <point x="55" y="87" type="curve" smooth="yes"/>
      <point x="55" y="52"/>
      <point x="79" y="32"/>
      <point x="108" y="23" type="curve" smooth="yes"/>
      <point x="131" y="17"/>
      <point x="149" y="-2"/>
      <point x="149" y="-21" type="curve" smooth="yes"/>
      <point x="149" y="-77"/>
      <point x="100" y="-112"/>
      <point x="48" y="-121" type="curve" smooth="yes"/>
      <point x="38" y="-123"/>
      <point x="32" y="-129"/>
      <point x="32" y="-134" type="curve" smooth="yes"/>
      <point x="32" y="-141"/>
      <point x="39" y="-147"/>
    </contour>
  </outline>
</glyph>
<glyph name="hyphen" format="1">
  <advance width="177"/>
  <unicode hex="002D"/>
  <outline>
    <contour>
      <point x="23" y="201" type="curve"/>
      <point x="66" y="206"/>
      <point x="105" y="214"/>
      <point x="144" y="218" type="curve" smooth="yes"/>
      <point x="154" y="220"/>
      <point x="157" y="257"/>
      <point x="157" y="282" type="curve" smooth="yes"/>
      <point x="157" y="286"/>
      <point x="154" y="288"/>
      <point x="152" y="288" type="curve"/>
      <point x="111" y="283"/>
      <point x="70" y="276"/>
      <point x="30" y="271" type="curve"/>
      <point x="23" y="270"/>
      <point x="19" y="229"/>
      <point x="19" y="207" type="curve" smooth="yes"/>
      <point x="19" y="203"/>
      <point x="20" y="201"/>
    </contour>
  </outline>
</glyph>
<glyph name="zero" format="1">
  <advance width="682"/>
  <unicode hex="0030"/>
  <outline>
    <contour>
      <point x="333" y="-14" type="curve" smooth="yes"/>
      <point x="563" y="-14"/>
      <point x="659" y="157"/>
      <point x="659" y="316" type="curve" smooth="yes"/>
      <point x="659" y="471"/>
      <point x="559" y="630"/>
      <point x="349" y="630" type="curve" smooth="yes"/>
      <point x="119" y="630"/>
      <point x="23" y="464"/>
      <point x="23" y="302" type="curve" smooth="yes"/>
      <point x="23" y="145"/>
      <point x="122" y="-14"/>
    </contour>
    <contour>
      <point x="348" y="56" type="curve" smooth="yes"/>
      <point x="296" y="56"/>
      <point x="271" y="178"/>
      <point x="271" y="319" type="curve" smooth="yes"/>
      <point x="271" y="460"/>
      <point x="288" y="559"/>
      <point x="333" y="559" type="curve" smooth="yes"/>
      <point x="384" y="559"/>
      <point x="411" y="441"/>
      <point x="411" y="300" type="curve" smooth="yes"/>
      <point x="411" y="159"/>
      <point x="393" y="56"/>
    </contour>
  </outline>
</glyph>
<glyph name="one" format="1">
  <advance width="682"/>
  <unicode hex="0031"/>
  <outline>
    <contour>
      <point x="162" y="-3" type="curve" smooth="yes"/>
      <point x="218" y="-3"/>
      <point x="280" y="2"/>
      <point x="341" y="2" type="curve" smooth="yes"/>
      <point x="401" y="2"/>
      <point x="458" y="-3"/>
      <point x="516" y="-3" type="curve" smooth="yes"/>
      <point x="532" y="-3"/>
      <point x="539" y="6"/>
      <point x="539" y="17" type="curve" smooth="yes"/>
      <point x="539" y="28"/>
      <point x="535" y="37"/>
      <point x="523" y="42" type="curve" smooth="yes"/>
      <point x="475" y="62"/>
      <point x="461" y="70"/>
      <point x="461" y="147" type="curve" smooth="yes"/>
      <point x="461" y="557" type="line" smooth="yes"/>
      <point x="461" y="585"/>
      <point x="463" y="601"/>
      <point x="463" y="621" type="curve"/>
      <point x="463" y="629"/>
      <point x="458" y="638"/>
      <point x="447" y="638" type="curve" smooth="yes"/>
      <point x="432" y="638"/>
      <point x="415" y="630"/>
      <point x="385" y="608" type="curve" smooth="yes"/>
      <point x="346" y="590"/>
      <point x="282" y="581"/>
      <point x="191" y="574" type="curve" smooth="yes"/>
      <point x="166" y="571"/>
      <point x="149" y="562"/>
      <point x="149" y="550" type="curve" smooth="yes"/>
      <point x="149" y="536"/>
      <point x="158" y="529"/>
      <point x="169" y="527" type="curve" smooth="yes"/>
      <point x="200" y="521"/>
      <point x="219" y="512"/>
      <point x="219" y="463" type="curve" smooth="yes"/>
      <point x="219" y="148" type="line" smooth="yes"/>
      <point x="219" y="68"/>
      <point x="197" y="60"/>
      <point x="156" y="43" type="curve" smooth="yes"/>
      <point x="144" y="39"/>
      <point x="140" y="30"/>
      <point x="140" y="18" type="curve" smooth="yes"/>
      <point x="140" y="7"/>
      <point x="146" y="-3"/>
    </contour>
  </outline>
</glyph>
<glyph name="two" format="1">
  <advance width="621"/>
  <unicode hex="0032"/>
  <outline>
    <contour>
      <point x="501" y="-3" type="curve" smooth="yes"/>
      <point x="505" y="-3"/>
      <point x="512" y="2"/>
      <point x="515" y="33" type="curve" smooth="yes"/>
      <point x="521" y="109"/>
      <point x="534" y="195"/>
      <point x="534" y="207" type="curve" smooth="yes"/>
      <point x="534" y="214"/>
      <point x="526" y="226"/>
      <point x="509" y="226" type="curve" smooth="yes"/>
      <point x="492" y="226"/>
      <point x="482" y="214"/>
      <point x="474" y="195" type="curve" smooth="yes"/>
      <point x="458" y="162"/>
      <point x="435" y="134"/>
      <point x="396" y="134" type="curve" smooth="yes"/>
      <point x="379" y="133"/>
      <point x="342" y="133"/>
      <point x="319" y="133" type="curve" smooth="yes"/>
      <point x="286" y="133"/>
      <point x="292" y="132"/>
      <point x="272" y="136" type="curve" smooth="yes"/>
      <point x="266" y="137"/>
      <point x="260" y="138"/>
      <point x="260" y="143" type="curve" smooth="yes"/>
      <point x="320" y="187"/>
      <point x="335" y="220"/>
      <point x="393" y="261" type="curve" smooth="yes"/>
      <point x="438" y="303"/>
      <point x="496" y="407"/>
      <point x="496" y="483" type="curve" smooth="yes"/>
      <point x="496" y="573"/>
      <point x="420" y="630"/>
      <point x="283" y="630" type="curve" smooth="yes"/>
      <point x="111" y="630"/>
      <point x="46" y="551"/>
      <point x="46" y="500" type="curve" smooth="yes"/>
      <point x="46" y="474"/>
      <point x="78" y="454"/>
      <point x="101" y="454" type="curve" smooth="yes"/>
      <point x="117" y="454"/>
      <point x="130" y="472"/>
      <point x="137" y="485" type="curve"/>
      <point x="151" y="521"/>
      <point x="162" y="566"/>
      <point x="191" y="566" type="curve" smooth="yes"/>
      <point x="222" y="566"/>
      <point x="243" y="526"/>
      <point x="243" y="452" type="curve" smooth="yes"/>
      <point x="243" y="376"/>
      <point x="194" y="283"/>
      <point x="159" y="210" type="curve" smooth="yes"/>
      <point x="74" y="28" type="line" smooth="yes"/>
      <point x="72" y="22"/>
      <point x="69" y="21"/>
      <point x="69" y="15" type="curve" smooth="yes"/>
      <point x="69" y="9"/>
      <point x="79" y="-2"/>
      <point x="82" y="-2" type="curve" smooth="yes"/>
      <point x="104" y="-2"/>
      <point x="299" y="3"/>
      <point x="354" y="3" type="curve" smooth="yes"/>
      <point x="408" y="3"/>
      <point x="479" y="-3"/>
    </contour>
  </outline>
</glyph>
<glyph name="three" format="1">
  <advance width="621"/>
  <unicode hex="0033"/>
  <outline>
    <contour>
      <point x="204" y="-38" type="curve" smooth="yes"/>
      <point x="363" y="-38"/>
      <point x="529" y="53"/>
      <point x="529" y="203" type="curve" smooth="yes"/>
      <point x="529" y="306"/>
      <point x="443" y="357"/>
      <point x="347" y="355" type="curve" smooth="yes"/>
      <point x="345" y="356"/>
      <point x="345" y="359"/>
      <point x="346" y="361" type="curve"/>
      <point x="444" y="396"/>
      <point x="495" y="451"/>
      <point x="495" y="516" type="curve" smooth="yes"/>
      <point x="495" y="583"/>
      <point x="412" y="630"/>
      <point x="307" y="630" type="curve" smooth="yes"/>
      <point x="142" y="630"/>
      <point x="71" y="551"/>
      <point x="71" y="512" type="curve" smooth="yes"/>
      <point x="71" y="492"/>
      <point x="102" y="461"/>
      <point x="140" y="461" type="curve" smooth="yes"/>
      <point x="149" y="461"/>
      <point x="175" y="561"/>
      <point x="208" y="561" type="curve" smooth="yes"/>
      <point x="235" y="561"/>
      <point x="251" y="527"/>
      <point x="251" y="476" type="curve" smooth="yes"/>
      <point x="251" y="413"/>
      <point x="223" y="368"/>
      <point x="167" y="340" type="curve" smooth="yes"/>
      <point x="158" y="333"/>
      <point x="146" y="321"/>
      <point x="148" y="291" type="curve" smooth="yes"/>
      <point x="148" y="275"/>
      <point x="164" y="264"/>
      <point x="171" y="270" type="curve" smooth="yes"/>
      <point x="185" y="281"/>
      <point x="201" y="284"/>
      <point x="210" y="284" type="curve" smooth="yes"/>
      <point x="256" y="284"/>
      <point x="283" y="215"/>
      <point x="283" y="150" type="curve" smooth="yes"/>
      <point x="283" y="80"/>
      <point x="236" y="26"/>
      <point x="191" y="26" type="curve" smooth="yes"/>
      <point x="168" y="26"/>
      <point x="158" y="41"/>
      <point x="146" y="55" type="curve" smooth="yes"/>
      <point x="137" y="64"/>
      <point x="127" y="73"/>
      <point x="117" y="73" type="curve" smooth="yes"/>
      <point x="100" y="73"/>
      <point x="71" y="48"/>
      <point x="71" y="28" type="curve" smooth="yes"/>
      <point x="71" y="-17"/>
      <point x="149" y="-38"/>
    </contour>
  </outline>
</glyph>
<glyph name="four" format="1">
  <advance width="621"/>
  <unicode hex="0034"/>
  <outline>
    <contour>
      <point x="206" y="-5" type="curve" smooth="yes"/>
      <point x="290" y="-5"/>
      <point x="325" y="4"/>
      <point x="382" y="4" type="curve" smooth="yes"/>
      <point x="452" y="4"/>
      <point x="479" y="-6"/>
      <point x="551" y="-6" type="curve" smooth="yes"/>
      <point x="576" y="-6"/>
      <point x="591" y="4"/>
      <point x="591" y="18" type="curve" smooth="yes"/>
      <point x="591" y="34"/>
      <point x="584" y="39"/>
      <point x="565" y="46" type="curve" smooth="yes"/>
      <point x="532" y="54"/>
      <point x="496" y="78"/>
      <point x="496" y="114" type="curve" smooth="yes"/>
      <point x="496" y="166" type="line" smooth="yes"/>
      <point x="496" y="168"/>
      <point x="501" y="171"/>
      <point x="505" y="172" type="curve"/>
      <point x="510" y="173"/>
      <point x="518" y="174"/>
      <point x="527" y="174" type="curve" smooth="yes"/>
      <point x="539" y="174"/>
      <point x="552" y="173"/>
      <point x="563" y="173" type="curve" smooth="yes"/>
      <point x="565" y="173"/>
      <point x="578" y="222"/>
      <point x="578" y="238" type="curve" smooth="yes"/>
      <point x="578" y="242"/>
      <point x="574" y="246"/>
      <point x="570" y="246" type="curve"/>
      <point x="556" y="246"/>
      <point x="544" y="245"/>
      <point x="532" y="245" type="curve" smooth="yes"/>
      <point x="522" y="245"/>
      <point x="513" y="245"/>
      <point x="502" y="245" type="curve"/>
      <point x="499" y="245"/>
      <point x="497" y="248"/>
      <point x="497" y="251" type="curve" smooth="yes"/>
      <point x="497" y="310" type="line" smooth="yes"/>
      <point x="497" y="352"/>
      <point x="497" y="374"/>
      <point x="489" y="374" type="curve" smooth="yes"/>
      <point x="462" y="374"/>
      <point x="344" y="372"/>
      <point x="282" y="361" type="curve"/>
      <point x="257" y="357"/>
      <point x="254" y="353"/>
      <point x="254" y="339" type="curve" smooth="yes"/>
      <point x="254" y="252" type="line" smooth="yes"/>
      <point x="254" y="248"/>
      <point x="249" y="244"/>
      <point x="246" y="244" type="curve" smooth="yes"/>
      <point x="151" y="244" type="line" smooth="yes"/>
      <point x="149" y="244"/>
      <point x="149" y="250"/>
      <point x="151" y="253" type="curve" smooth="yes"/>
      <point x="385" y="628" type="line"/>
      <point x="385" y="628"/>
      <point x="390" y="642"/>
      <point x="387" y="642" type="curve" smooth="yes"/>
      <point x="210" y="642" type="line" smooth="yes"/>
      <point x="204" y="642"/>
      <point x="196" y="626"/>
      <point x="191" y="614" type="curve" smooth="yes"/>
      <point x="63" y="242" type="line" smooth="yes"/>
      <point x="56" y="223"/>
      <point x="46" y="206"/>
      <point x="34" y="176" type="curve"/>
      <point x="33" y="175"/>
      <point x="33" y="174"/>
      <point x="33" y="173" type="curve" smooth="yes"/>
      <point x="33" y="169"/>
      <point x="36" y="163"/>
      <point x="39" y="163" type="curve" smooth="yes"/>
      <point x="106" y="162"/>
      <point x="197" y="170"/>
      <point x="245" y="170" type="curve" smooth="yes"/>
      <point x="246" y="170"/>
      <point x="254" y="167"/>
      <point x="254" y="161" type="curve" smooth="yes"/>
      <point x="254" y="103" type="line" smooth="yes"/>
      <point x="254" y="70"/>
      <point x="238" y="52"/>
      <point x="187" y="46" type="curve" smooth="yes"/>
      <point x="166" y="42"/>
      <point x="159" y="34"/>
      <point x="159" y="19" type="curve" smooth="yes"/>
      <point x="159" y="4"/>
      <point x="183" y="-5"/>
    </contour>
  </outline>
</glyph>
<glyph name="five" format="1">
  <advance width="621"/>
  <unicode hex="0035"/>
  <outline>
    <contour>
      <point x="141" y="-38" type="curve" smooth="yes"/>
      <point x="226" y="-38"/>
      <point x="304" y="-20"/>
      <point x="367" y="9" type="curve" smooth="yes"/>
      <point x="456" y="50"/>
      <point x="512" y="124"/>
      <point x="512" y="195" type="curve" smooth="yes"/>
      <point x="512" y="292"/>
      <point x="462" y="346"/>
      <point x="328" y="375" type="curve" smooth="yes"/>
      <point x="281" y="392"/>
      <point x="230" y="401"/>
      <point x="197" y="405" type="curve" smooth="yes"/>
      <point x="191" y="409"/>
      <point x="187" y="415"/>
      <point x="189" y="424" type="curve"/>
      <point x="191" y="440"/>
      <point x="202" y="488"/>
      <point x="208" y="490" type="curve" smooth="yes"/>
      <point x="248" y="496"/>
      <point x="368" y="501"/>
      <point x="437" y="508" type="curve" smooth="yes"/>
      <point x="449" y="511"/>
      <point x="459" y="525"/>
      <point x="468" y="552" type="curve" smooth="yes"/>
      <point x="473" y="566"/>
      <point x="479" y="583"/>
      <point x="484" y="598" type="curve" smooth="yes"/>
      <point x="489" y="611"/>
      <point x="483" y="623"/>
      <point x="469" y="622" type="curve" smooth="yes"/>
      <point x="371" y="615"/>
      <point x="291" y="612"/>
      <point x="198" y="592" type="curve" smooth="yes"/>
      <point x="180" y="587"/>
      <point x="166" y="576"/>
      <point x="159" y="556" type="curve" smooth="yes"/>
      <point x="145" y="514"/>
      <point x="118" y="431"/>
      <point x="118" y="349" type="curve" smooth="yes"/>
      <point x="118" y="333"/>
      <point x="122" y="322"/>
      <point x="133" y="308" type="curve"/>
      <point x="234" y="270"/>
      <point x="272" y="244"/>
      <point x="272" y="174" type="curve" smooth="yes"/>
      <point x="272" y="105"/>
      <point x="231" y="32"/>
      <point x="139" y="24" type="curve" smooth="yes"/>
      <point x="124" y="23"/>
      <point x="116" y="6"/>
      <point x="116" y="-9" type="curve" smooth="yes"/>
      <point x="116" y="-26"/>
      <point x="126" y="-38"/>
    </contour>
  </outline>
</glyph>
<glyph name="six" format="1">
  <advance width="621"/>
  <unicode hex="0036"/>
  <outline>
    <contour>
      <point x="325" y="-16" type="curve" smooth="yes"/>
      <point x="456" y="-16"/>
      <point x="603" y="65"/>
      <point x="603" y="190" type="curve" smooth="yes"/>
      <point x="603" y="280"/>
      <point x="546" y="344"/>
      <point x="459" y="344" type="curve" smooth="yes"/>
      <point x="418" y="344"/>
      <point x="359" y="323"/>
      <point x="313" y="282" type="curve" smooth="yes"/>
      <point x="302" y="271"/>
      <point x="291" y="258"/>
      <point x="285" y="247" type="curve" smooth="yes"/>
      <point x="266" y="221"/>
      <point x="273" y="193"/>
      <point x="293" y="212" type="curve" smooth="yes"/>
      <point x="307" y="228"/>
      <point x="318" y="234"/>
      <point x="337" y="234" type="curve" smooth="yes"/>
      <point x="369" y="234"/>
      <point x="387" y="192"/>
      <point x="387" y="147" type="curve" smooth="yes"/>
      <point x="387" y="86"/>
      <point x="360" y="58"/>
      <point x="331" y="59" type="curve" smooth="yes"/>
      <point x="295" y="60"/>
      <point x="255" y="115"/>
      <point x="254" y="216" type="curve" smooth="yes"/>
      <point x="253" y="308"/>
      <point x="275" y="399"/>
      <point x="321" y="462" type="curve" smooth="yes"/>
      <point x="352" y="519"/>
      <point x="391" y="561"/>
      <point x="433" y="587" type="curve" smooth="yes"/>
      <point x="437" y="589"/>
      <point x="451" y="600"/>
      <point x="448" y="618" type="curve" smooth="yes"/>
      <point x="447" y="625"/>
      <point x="446" y="644"/>
      <point x="403" y="632" type="curve" smooth="yes"/>
      <point x="348" y="622"/>
      <point x="294" y="582"/>
      <point x="227" y="528" type="curve" smooth="yes"/>
      <point x="92" y="432"/>
      <point x="29" y="310"/>
      <point x="29" y="193" type="curve" smooth="yes"/>
      <point x="29" y="53"/>
      <point x="176" y="-16"/>
    </contour>
  </outline>
</glyph>
<glyph name="seven" format="1">
  <advance width="621"/>
  <unicode hex="0037"/>
  <outline>
    <contour>
      <point x="249" y="-32" type="curve" smooth="yes"/>
      <point x="255" y="-32"/>
      <point x="264" y="-18"/>
      <point x="269" y="-5" type="curve" smooth="yes"/>
      <point x="550" y="538" type="line" smooth="yes"/>
      <point x="558" y="554"/>
      <point x="574" y="592"/>
      <point x="574" y="608" type="curve" smooth="yes"/>
      <point x="574" y="613"/>
      <point x="572" y="621"/>
      <point x="570" y="621" type="curve" smooth="yes"/>
      <point x="555" y="621"/>
      <point x="415" y="616"/>
      <point x="250" y="616" type="curve" smooth="yes"/>
      <point x="214" y="616"/>
      <point x="197" y="617"/>
      <point x="174" y="617" type="curve" smooth="yes"/>
      <point x="142" y="617"/>
      <point x="111" y="626"/>
      <point x="109" y="626" type="curve" smooth="yes"/>
      <point x="105" y="626"/>
      <point x="96" y="621"/>
      <point x="95" y="604" type="curve" smooth="yes"/>
      <point x="93" y="555"/>
      <point x="90" y="514"/>
      <point x="80" y="456" type="curve"/>
      <point x="78" y="446"/>
      <point x="74" y="427"/>
      <point x="74" y="412" type="curve" smooth="yes"/>
      <point x="74" y="403"/>
      <point x="67" y="385"/>
      <point x="78" y="385" type="curve" smooth="yes"/>
      <point x="85" y="385"/>
      <point x="100" y="399"/>
      <point x="105" y="410" type="curve" smooth="yes"/>
      <point x="121" y="447"/>
      <point x="138" y="456"/>
      <point x="158" y="456" type="curve" smooth="yes"/>
      <point x="429" y="456" type="line"/>
      <point x="421" y="504" type="line"/>
      <point x="210" y="76" type="line" smooth="yes"/>
      <point x="196" y="51"/>
      <point x="189" y="26"/>
      <point x="189" y="19" type="curve" smooth="yes"/>
      <point x="189" y="-11"/>
      <point x="215" y="-32"/>
    </contour>
  </outline>
</glyph>
<glyph name="eight" format="1">
  <advance width="682"/>
  <unicode hex="0038"/>
  <outline>
    <contour>
      <point x="325" y="-14" type="curve" smooth="yes"/>
      <point x="465" y="-14"/>
      <point x="606" y="60"/>
      <point x="606" y="164" type="curve" smooth="yes"/>
      <point x="606" y="241"/>
      <point x="532" y="304"/>
      <point x="490" y="346" type="curve" smooth="yes"/>
      <point x="482" y="353"/>
      <point x="479" y="360"/>
      <point x="495" y="367" type="curve" smooth="yes"/>
      <point x="512" y="377"/>
      <point x="524" y="382"/>
      <point x="527" y="384" type="curve" smooth="yes"/>
      <point x="556" y="402"/>
      <point x="580" y="442"/>
      <point x="580" y="496" type="curve" smooth="yes"/>
      <point x="580" y="577"/>
      <point x="467" y="630"/>
      <point x="352" y="630" type="curve" smooth="yes"/>
      <point x="228" y="630"/>
      <point x="98" y="567"/>
      <point x="98" y="489" type="curve" smooth="yes"/>
      <point x="98" y="404"/>
      <point x="156" y="354"/>
      <point x="206" y="303" type="curve" smooth="yes"/>
      <point x="213" y="295"/>
      <point x="218" y="293"/>
      <point x="209" y="290" type="curve" smooth="yes"/>
      <point x="158" y="272"/>
      <point x="76" y="236"/>
      <point x="76" y="141" type="curve" smooth="yes"/>
      <point x="76" y="49"/>
      <point x="195" y="-14"/>
    </contour>
    <contour>
      <point x="335" y="53" type="curve" smooth="yes"/>
      <point x="286" y="53"/>
      <point x="237" y="146"/>
      <point x="237" y="185" type="curve" smooth="yes"/>
      <point x="237" y="207"/>
      <point x="251" y="214"/>
      <point x="269" y="236" type="curve" smooth="yes"/>
      <point x="271" y="238"/>
      <point x="272" y="239"/>
      <point x="274" y="239" type="curve" smooth="yes"/>
      <point x="277" y="239"/>
      <point x="279" y="237"/>
      <point x="284" y="234" type="curve"/>
      <point x="297" y="226"/>
      <point x="387" y="154"/>
      <point x="387" y="117" type="curve" smooth="yes"/>
      <point x="387" y="83"/>
      <point x="365" y="53"/>
    </contour>
    <contour>
      <point x="416" y="410" type="curve"/>
      <point x="414" y="409"/>
      <point x="410" y="409"/>
      <point x="409" y="411" type="curve"/>
      <point x="382" y="427"/>
      <point x="291" y="494"/>
      <point x="290" y="515" type="curve" smooth="yes"/>
      <point x="289" y="541"/>
      <point x="294" y="560"/>
      <point x="335" y="560" type="curve" smooth="yes"/>
      <point x="369" y="560"/>
      <point x="450" y="491"/>
      <point x="450" y="453" type="curve" smooth="yes"/>
      <point x="450" y="435"/>
      <point x="435" y="423"/>
    </contour>
  </outline>
</glyph>
<glyph name="question" format="1">
  <advance width="332"/>
  <unicode hex="003F"/>
  <outline>
    <contour>
      <point x="123" y="161" type="curve" smooth="yes"/>
      <point x="139" y="161"/>
      <point x="151" y="174"/>
      <point x="152" y="183" type="curve" smooth="yes"/>
      <point x="156" y="220"/>
      <point x="160" y="243"/>
      <point x="185" y="264" type="curve" smooth="yes"/>
      <point x="199" y="274"/>
      <point x="219" y="283"/>
      <point x="237" y="293" type="curve" smooth="yes"/>
      <point x="263" y="307"/>
      <point x="289" y="336"/>
      <point x="289" y="392" type="curve" smooth="yes"/>
      <point x="289" y="448"/>
      <point x="254" y="541"/>
      <point x="204" y="603" type="curve" smooth="yes"/>
      <point x="172" y="639"/>
      <point x="133" y="661"/>
      <point x="102" y="661" type="curve" smooth="yes"/>
      <point x="87" y="661"/>
      <point x="70" y="644"/>
      <point x="70" y="621" type="curve" smooth="yes"/>
      <point x="70" y="587"/>
      <point x="83" y="561"/>
      <point x="99" y="561" type="curve" smooth="yes"/>
      <point x="104" y="561"/>
      <point x="108" y="562"/>
      <point x="111" y="563" type="curve" smooth="yes"/>
      <point x="116" y="564"/>
      <point x="118" y="565"/>
      <point x="123" y="565" type="curve" smooth="yes"/>
      <point x="169" y="565"/>
      <point x="193" y="538"/>
      <point x="193" y="500" type="curve" smooth="yes"/>
      <point x="193" y="475"/>
      <point x="171" y="447"/>
      <point x="145" y="427" type="curve" smooth="yes"/>
      <point x="92" y="395"/>
      <point x="67" y="356"/>
      <point x="67" y="317" type="curve" smooth="yes"/>
      <point x="67" y="263"/>
      <point x="78" y="225"/>
      <point x="83" y="200" type="curve" smooth="yes"/>
      <point x="88" y="180"/>
      <point x="104" y="161"/>
    </contour>
    <contour>
      <point x="144" y="-14" type="curve" smooth="yes"/>
      <point x="205" y="-14"/>
      <point x="241" y="7"/>
      <point x="241" y="42" type="curve" smooth="yes"/>
      <point x="241" y="77"/>
      <point x="205" y="98"/>
      <point x="144" y="98" type="curve" smooth="yes"/>
      <point x="85" y="98"/>
      <point x="49" y="77"/>
      <point x="49" y="42" type="curve" smooth="yes"/>
      <point x="49" y="7"/>
      <point x="85" y="-14"/>
    </contour>
  </outline>
</glyph>
<glyph name="at" format="1">
  <advance width="729"/>
  <unicode hex="0040"/>
  <outline>
    <contour>
      <point x="366" y="-158" type="curve" smooth="yes"/>
      <point x="503" y="-158"/>
      <point x="628" y="-82"/>
      <point x="635" y="-28" type="curve" smooth="yes"/>
      <point x="638" y="-4"/>
      <point x="627" y="6"/>
      <point x="603" y="6" type="curve" smooth="yes"/>
      <point x="590" y="6"/>
      <point x="573" y="-8"/>
      <point x="554" y="-23" type="curve" smooth="yes"/>
      <point x="494" y="-69"/>
      <point x="420" y="-93"/>
      <point x="368" y="-93" type="curve" smooth="yes"/>
      <point x="211" y="-93"/>
      <point x="96" y="21"/>
      <point x="96" y="214" type="curve" smooth="yes"/>
      <point x="96" y="395"/>
      <point x="233" y="514"/>
      <point x="384" y="514" type="curve" smooth="yes"/>
      <point x="531" y="514"/>
      <point x="634" y="413"/>
      <point x="634" y="245" type="curve" smooth="yes"/>
      <point x="634" y="152"/>
      <point x="608" y="108"/>
      <point x="592" y="108" type="curve" smooth="yes"/>
      <point x="567" y="108"/>
      <point x="561" y="123"/>
      <point x="561" y="140" type="curve" smooth="yes"/>
      <point x="561" y="150"/>
      <point x="561" y="161"/>
      <point x="562" y="170" type="curve"/>
      <point x="573" y="305" type="line" smooth="yes"/>
      <point x="575" y="323"/>
      <point x="582" y="368"/>
      <point x="588" y="395" type="curve"/>
      <point x="597" y="399"/>
      <point x="535" y="404"/>
      <point x="523" y="404" type="curve" smooth="yes"/>
      <point x="490" y="404"/>
      <point x="474" y="382"/>
      <point x="442" y="382" type="curve" smooth="yes"/>
      <point x="436" y="382"/>
      <point x="430" y="386"/>
      <point x="415" y="390" type="curve" smooth="yes"/>
      <point x="403" y="394"/>
      <point x="375" y="398"/>
      <point x="357" y="398" type="curve" smooth="yes"/>
      <point x="246" y="398"/>
      <point x="144" y="311"/>
      <point x="144" y="175" type="curve" smooth="yes"/>
      <point x="144" y="96"/>
      <point x="201" y="52"/>
      <point x="274" y="52" type="curve" smooth="yes"/>
      <point x="340" y="52"/>
      <point x="387" y="92"/>
      <point x="398" y="92" type="curve" smooth="yes"/>
      <point x="428" y="92"/>
      <point x="437" y="52"/>
      <point x="563" y="47" type="curve" smooth="yes"/>
      <point x="626" y="47"/>
      <point x="707" y="125"/>
      <point x="707" y="265" type="curve" smooth="yes"/>
      <point x="707" y="449"/>
      <point x="571" y="579"/>
      <point x="406" y="579" type="curve" smooth="yes"/>
      <point x="205" y="579"/>
      <point x="23" y="450"/>
      <point x="23" y="203" type="curve" smooth="yes"/>
      <point x="23" y="-19"/>
      <point x="176" y="-158"/>
    </contour>
    <contour>
      <point x="353" y="105" type="curve" smooth="yes"/>
      <point x="335" y="105"/>
      <point x="317" y="126"/>
      <point x="318" y="197" type="curve" smooth="yes"/>
      <point x="320" y="293"/>
      <point x="347" y="342"/>
      <point x="374" y="342" type="curve" smooth="yes"/>
      <point x="394" y="342"/>
      <point x="403" y="325"/>
      <point x="403" y="289" type="curve" smooth="yes"/>
      <point x="403" y="286"/>
      <point x="403" y="281"/>
      <point x="403" y="278" type="curve"/>
      <point x="395" y="174" type="line" smooth="yes"/>
      <point x="393" y="144"/>
      <point x="386" y="134"/>
      <point x="381" y="126" type="curve" smooth="yes"/>
      <point x="371" y="113"/>
      <point x="364" y="105"/>
    </contour>
  </outline>
</glyph>
<glyph name="A" format="1">
  <advance width="653"/>
  <unicode hex="0041"/>
  <outline>
    <contour>
      <point x="19" y="-5" type="curve" smooth="yes"/>
      <point x="41" y="-5"/>
      <point x="71" y="6"/>
      <point x="102" y="6" type="curve" smooth="yes"/>
      <point x="128" y="6"/>
      <point x="153" y="2"/>
      <point x="165" y="2" type="curve" smooth="yes"/>
      <point x="178" y="2"/>
      <point x="186" y="8"/>
      <point x="186" y="22" type="curve" smooth="yes"/>
      <point x="186" y="38"/>
      <point x="183" y="48"/>
      <point x="173" y="58" type="curve" smooth="yes"/>
      <point x="162" y="69"/>
      <point x="153" y="84"/>
      <point x="153" y="111" type="curve" smooth="yes"/>
      <point x="153" y="124"/>
      <point x="161" y="188"/>
      <point x="167" y="214" type="curve" smooth="yes"/>
      <point x="170" y="228"/>
      <point x="174" y="232"/>
      <point x="178" y="232" type="curve" smooth="yes"/>
      <point x="290" y="232" type="line" smooth="yes"/>
      <point x="302" y="232"/>
      <point x="305" y="231"/>
      <point x="307" y="221" type="curve" smooth="yes"/>
      <point x="315" y="171"/>
      <point x="319" y="131"/>
      <point x="319" y="102" type="curve" smooth="yes"/>
      <point x="319" y="81"/>
      <point x="310" y="67"/>
      <point x="287" y="59" type="curve" smooth="yes"/>
      <point x="274" y="56"/>
      <point x="265" y="42"/>
      <point x="265" y="25" type="curve" smooth="yes"/>
      <point x="265" y="11"/>
      <point x="281" y="4"/>
      <point x="303" y="4" type="curve" smooth="yes"/>
      <point x="334" y="4"/>
      <point x="388" y="6"/>
      <point x="441" y="6" type="curve" smooth="yes"/>
      <point x="499" y="6"/>
      <point x="584" y="-5"/>
      <point x="621" y="-5" type="curve" smooth="yes"/>
      <point x="643" y="-5"/>
      <point x="658" y="-1"/>
      <point x="658" y="13" type="curve" smooth="yes"/>
      <point x="658" y="29"/>
      <point x="652" y="48"/>
      <point x="631" y="54" type="curve" smooth="yes"/>
      <point x="608" y="62"/>
      <point x="583" y="74"/>
      <point x="563" y="155" type="curve" smooth="yes"/>
      <point x="543" y="250"/>
      <point x="501" y="459"/>
      <point x="467" y="640" type="curve" smooth="yes"/>
      <point x="458" y="670"/>
      <point x="446" y="679"/>
      <point x="434" y="684" type="curve"/>
      <point x="429" y="687"/>
      <point x="418" y="686"/>
      <point x="414" y="684" type="curve"/>
      <point x="400" y="678"/>
      <point x="385" y="659"/>
      <point x="338" y="651" type="curve" smooth="yes"/>
      <point x="292" y="643"/>
      <point x="248" y="640"/>
      <point x="202" y="636" type="curve"/>
      <point x="201" y="617"/>
      <point x="197" y="599"/>
      <point x="193" y="580" type="curve" smooth="yes"/>
      <point x="150" y="395"/>
      <point x="136" y="312"/>
      <point x="87" y="141" type="curve" smooth="yes"/>
      <point x="70" y="89"/>
      <point x="47" y="72"/>
      <point x="29" y="61" type="curve" smooth="yes"/>
      <point x="5" y="50"/>
      <point x="-2" y="36"/>
      <point x="-2" y="18" type="curve" smooth="yes"/>
      <point x="-2" y="4"/>
      <point x="6" y="-5"/>
    </contour>
    <contour>
      <point x="208" y="299" type="line" smooth="yes"/>
      <point x="200" y="299"/>
      <point x="194" y="299"/>
      <point x="194" y="306" type="curve" smooth="yes"/>
      <point x="194" y="308"/>
      <point x="195" y="311"/>
      <point x="196" y="314" type="curve"/>
      <point x="238" y="513" type="line" smooth="yes"/>
      <point x="241" y="523"/>
      <point x="242" y="530"/>
      <point x="243" y="530" type="curve" smooth="yes"/>
      <point x="245" y="530"/>
      <point x="246" y="524"/>
      <point x="249" y="512" type="curve" smooth="yes"/>
      <point x="283" y="314" type="line"/>
      <point x="283" y="310"/>
      <point x="284" y="306"/>
      <point x="284" y="304" type="curve" smooth="yes"/>
      <point x="284" y="299"/>
      <point x="282" y="299"/>
      <point x="276" y="299" type="curve" smooth="yes"/>
    </contour>
  </outline>
</glyph>
<glyph name="B" format="1">
  <advance width="737"/>
  <unicode hex="0042"/>
  <outline>
    <contour>
      <point x="32" y="-3" type="curve" smooth="yes"/>
      <point x="125" y="-3"/>
      <point x="158" y="2"/>
      <point x="243" y="2" type="curve" smooth="yes"/>
      <point x="310" y="2"/>
      <point x="374" y="-2"/>
      <point x="404" y="-2" type="curve" smooth="yes"/>
      <point x="488" y="-2"/>
      <point x="546" y="11"/>
      <point x="593" y="32" type="curve" smooth="yes"/>
      <point x="639" y="53"/>
      <point x="710" y="85"/>
      <point x="710" y="195" type="curve" smooth="yes"/>
      <point x="710" y="296"/>
      <point x="622" y="333"/>
      <point x="538" y="358" type="curve" smooth="yes"/>
      <point x="531" y="360"/>
      <point x="532" y="366"/>
      <point x="538" y="368" type="curve" smooth="yes"/>
      <point x="576" y="379"/>
      <point x="597" y="392"/>
      <point x="621" y="411" type="curve" smooth="yes"/>
      <point x="644" y="432"/>
      <point x="664" y="467"/>
      <point x="664" y="507" type="curve" smooth="yes"/>
      <point x="664" y="603"/>
      <point x="574" y="655"/>
      <point x="405" y="655" type="curve" smooth="yes"/>
      <point x="312" y="655"/>
      <point x="277" y="650"/>
      <point x="211" y="650" type="curve" smooth="yes"/>
      <point x="143" y="650"/>
      <point x="128" y="651"/>
      <point x="38" y="651" type="curve" smooth="yes"/>
      <point x="25" y="651"/>
      <point x="20" y="643"/>
      <point x="20" y="629" type="curve" smooth="yes"/>
      <point x="20" y="615"/>
      <point x="26" y="605"/>
      <point x="41" y="602" type="curve" smooth="yes"/>
      <point x="72" y="594"/>
      <point x="84" y="573"/>
      <point x="84" y="517" type="curve" smooth="yes"/>
      <point x="84" y="119" type="line" smooth="yes"/>
      <point x="84" y="71"/>
      <point x="66" y="55"/>
      <point x="34" y="46" type="curve" smooth="yes"/>
      <point x="19" y="39"/>
      <point x="13" y="33"/>
      <point x="13" y="18" type="curve" smooth="yes"/>
      <point x="13" y="5"/>
      <point x="20" y="-3"/>
    </contour>
    <contour>
      <point x="367" y="67" type="curve" smooth="yes"/>
      <point x="340" y="67"/>
      <point x="324" y="81"/>
      <point x="324" y="127" type="curve" smooth="yes"/>
      <point x="324" y="294" type="line" smooth="yes"/>
      <point x="324" y="307"/>
      <point x="331" y="326"/>
      <point x="355" y="326" type="curve" smooth="yes"/>
      <point x="389" y="326"/>
      <point x="408" y="312"/>
      <point x="418" y="305" type="curve" smooth="yes"/>
      <point x="433" y="292"/>
      <point x="459" y="260"/>
      <point x="459" y="195" type="curve" smooth="yes"/>
      <point x="459" y="105"/>
      <point x="417" y="67"/>
    </contour>
    <contour>
      <point x="349" y="387" type="curve" smooth="yes"/>
      <point x="340" y="387"/>
      <point x="324" y="389"/>
      <point x="324" y="416" type="curve" smooth="yes"/>
      <point x="324" y="555" type="line" smooth="yes"/>
      <point x="324" y="580"/>
      <point x="330" y="592"/>
      <point x="360" y="592" type="curve" smooth="yes"/>
      <point x="421" y="592"/>
      <point x="438" y="557"/>
      <point x="438" y="485" type="curve" smooth="yes"/>
      <point x="438" y="440"/>
      <point x="421" y="416"/>
      <point x="414" y="410" type="curve" smooth="yes"/>
      <point x="392" y="391"/>
      <point x="368" y="387"/>
    </contour>
  </outline>
</glyph>
<glyph name="D" format="1">
  <advance width="803"/>
  <unicode hex="0044"/>
  <outline>
    <contour>
      <point x="396" y="-7" type="curve" smooth="yes"/>
      <point x="606" y="-7"/>
      <point x="778" y="150"/>
      <point x="778" y="342" type="curve" smooth="yes"/>
      <point x="778" y="517"/>
      <point x="660" y="659"/>
      <point x="361" y="659" type="curve" smooth="yes"/>
      <point x="332" y="659"/>
      <point x="221" y="651"/>
      <point x="173" y="651" type="curve" smooth="yes"/>
      <point x="119" y="651"/>
      <point x="106" y="653"/>
      <point x="48" y="653" type="curve" smooth="yes"/>
      <point x="30" y="653"/>
      <point x="16" y="647"/>
      <point x="16" y="632" type="curve" smooth="yes"/>
      <point x="16" y="615"/>
      <point x="22" y="609"/>
      <point x="34" y="603" type="curve" smooth="yes"/>
      <point x="64" y="592"/>
      <point x="72" y="573"/>
      <point x="72" y="521" type="curve" smooth="yes"/>
      <point x="72" y="145" type="line" smooth="yes"/>
      <point x="72" y="82"/>
      <point x="62" y="59"/>
      <point x="34" y="47" type="curve" smooth="yes"/>
      <point x="22" y="40"/>
      <point x="16" y="38"/>
      <point x="16" y="18" type="curve" smooth="yes"/>
      <point x="16" y="0"/>
      <point x="30" y="-5"/>
      <point x="48" y="-5" type="curve" smooth="yes"/>
      <point x="109" y="-5"/>
      <point x="122" y="0"/>
      <point x="166" y="0" type="curve" smooth="yes"/>
      <point x="253" y="0"/>
      <point x="373" y="-7"/>
    </contour>
    <contour>
      <point x="389" y="64" type="curve" smooth="yes"/>
      <point x="352" y="64"/>
      <point x="314" y="74"/>
      <point x="314" y="145" type="curve" smooth="yes"/>
      <point x="314" y="502" type="line" smooth="yes"/>
      <point x="314" y="591"/>
      <point x="338" y="592"/>
      <point x="382" y="592" type="curve" smooth="yes"/>
      <point x="448" y="592"/>
      <point x="521" y="535"/>
      <point x="521" y="325" type="curve" smooth="yes"/>
      <point x="521" y="144"/>
      <point x="467" y="64"/>
    </contour>
  </outline>
</glyph>
<glyph name="E" format="1">
  <advance width="542"/>
  <unicode hex="0045"/>
  <outline>
    <contour>
      <point x="48" y="-5" type="curve" smooth="yes"/>
      <point x="105" y="-5"/>
      <point x="121" y="1"/>
      <point x="169" y="1" type="curve" smooth="yes"/>
      <point x="275" y="1"/>
      <point x="365" y="-5"/>
      <point x="501" y="-5" type="curve" smooth="yes"/>
      <point x="507" y="-5"/>
      <point x="508" y="3"/>
      <point x="510" y="12" type="curve" smooth="yes"/>
      <point x="516" y="39"/>
      <point x="530" y="141"/>
      <point x="530" y="159" type="curve" smooth="yes"/>
      <point x="530" y="167"/>
      <point x="522" y="176"/>
      <point x="510" y="176" type="curve" smooth="yes"/>
      <point x="499" y="176"/>
      <point x="487" y="170"/>
      <point x="484" y="160" type="curve" smooth="yes"/>
      <point x="471" y="121"/>
      <point x="464" y="97"/>
      <point x="452" y="83" type="curve" smooth="yes"/>
      <point x="441" y="69"/>
      <point x="426" y="66"/>
      <point x="403" y="66" type="curve" smooth="yes"/>
      <point x="371" y="66" type="line" smooth="yes"/>
      <point x="342" y="66"/>
      <point x="329" y="82"/>
      <point x="329" y="133" type="curve" smooth="yes"/>
      <point x="329" y="277" type="line" smooth="yes"/>
      <point x="329" y="300"/>
      <point x="336" y="303"/>
      <point x="351" y="303" type="curve" smooth="yes"/>
      <point x="378" y="303" type="line" smooth="yes"/>
      <point x="398" y="303"/>
      <point x="406" y="295"/>
      <point x="412" y="268" type="curve" smooth="yes"/>
      <point x="419" y="242"/>
      <point x="432" y="234"/>
      <point x="448" y="234" type="curve" smooth="yes"/>
      <point x="463" y="234"/>
      <point x="466" y="244"/>
      <point x="466" y="253" type="curve" smooth="yes"/>
      <point x="466" y="261"/>
      <point x="463" y="317"/>
      <point x="463" y="337" type="curve" smooth="yes"/>
      <point x="463" y="353"/>
      <point x="466" y="404"/>
      <point x="466" y="413" type="curve" smooth="yes"/>
      <point x="466" y="423"/>
      <point x="456" y="432"/>
      <point x="443" y="432" type="curve" smooth="yes"/>
      <point x="431" y="432"/>
      <point x="420" y="423"/>
      <point x="416" y="407" type="curve" smooth="yes"/>
      <point x="411" y="384"/>
      <point x="398" y="369"/>
      <point x="381" y="369" type="curve" smooth="yes"/>
      <point x="340" y="369" type="line" smooth="yes"/>
      <point x="334" y="369"/>
      <point x="329" y="379"/>
      <point x="329" y="391" type="curve" smooth="yes"/>
      <point x="329" y="551" type="line" smooth="yes"/>
      <point x="329" y="570"/>
      <point x="345" y="583"/>
      <point x="352" y="583" type="curve" smooth="yes"/>
      <point x="407" y="583" type="line" smooth="yes"/>
      <point x="423" y="583"/>
      <point x="438" y="577"/>
      <point x="450" y="556" type="curve" smooth="yes"/>
      <point x="456" y="546"/>
      <point x="463" y="526"/>
      <point x="465" y="510" type="curve" smooth="yes"/>
      <point x="467" y="501"/>
      <point x="477" y="491"/>
      <point x="487" y="491" type="curve" smooth="yes"/>
      <point x="496" y="491"/>
      <point x="508" y="499"/>
      <point x="508" y="511" type="curve" smooth="yes"/>
      <point x="508" y="538"/>
      <point x="504" y="606"/>
      <point x="499" y="644" type="curve"/>
      <point x="498" y="651"/>
      <point x="488" y="653"/>
      <point x="481" y="653" type="curve" smooth="yes"/>
      <point x="476" y="653"/>
      <point x="436" y="652"/>
      <point x="384" y="651" type="curve" smooth="yes"/>
      <point x="337" y="650"/>
      <point x="279" y="650"/>
      <point x="229" y="650" type="curve" smooth="yes"/>
      <point x="160" y="650"/>
      <point x="128" y="653"/>
      <point x="52" y="653" type="curve" smooth="yes"/>
      <point x="35" y="653"/>
      <point x="23" y="645"/>
      <point x="23" y="631" type="curve" smooth="yes"/>
      <point x="23" y="615"/>
      <point x="29" y="603"/>
      <point x="44" y="598" type="curve" smooth="yes"/>
      <point x="75" y="586"/>
      <point x="87" y="573"/>
      <point x="87" y="525" type="curve" smooth="yes"/>
      <point x="87" y="122" type="line" smooth="yes"/>
      <point x="87" y="74"/>
      <point x="72" y="58"/>
      <point x="40" y="47" type="curve" smooth="yes"/>
      <point x="24" y="41"/>
      <point x="19" y="31"/>
      <point x="19" y="15" type="curve" smooth="yes"/>
      <point x="19" y="0"/>
      <point x="31" y="-5"/>
    </contour>
  </outline>
</glyph>
<glyph name="G" format="1">
  <advance width="748"/>
  <unicode hex="0047"/>
  <outline>
    <contour>
      <point x="414" y="-12" type="curve" smooth="yes"/>
      <point x="598" y="-12"/>
      <point x="669" y="52"/>
      <point x="683" y="55" type="curve" smooth="yes"/>
      <point x="693" y="58"/>
      <point x="693" y="69"/>
      <point x="693" y="74" type="curve" smooth="yes"/>
      <point x="693" y="78"/>
      <point x="687" y="83"/>
      <point x="684" y="90" type="curve"/>
      <point x="683" y="96"/>
      <point x="680" y="99"/>
      <point x="680" y="106" type="curve" smooth="yes"/>
      <point x="680" y="133" type="line" smooth="yes"/>
      <point x="680" y="161"/>
      <point x="681" y="185"/>
      <point x="688" y="204" type="curve" smooth="yes"/>
      <point x="695" y="222"/>
      <point x="705" y="232"/>
      <point x="708" y="237" type="curve"/>
      <point x="714" y="240"/>
      <point x="724" y="253"/>
      <point x="724" y="267" type="curve" smooth="yes"/>
      <point x="724" y="285"/>
      <point x="714" y="290"/>
      <point x="710" y="290" type="curve" smooth="yes"/>
      <point x="657" y="290"/>
      <point x="631" y="286"/>
      <point x="580" y="286" type="curve" smooth="yes"/>
      <point x="501" y="286"/>
      <point x="467" y="290"/>
      <point x="399" y="290" type="curve" smooth="yes"/>
      <point x="387" y="290"/>
      <point x="376" y="281"/>
      <point x="376" y="261" type="curve" smooth="yes"/>
      <point x="376" y="239"/>
      <point x="390" y="232"/>
      <point x="399" y="231" type="curve" smooth="yes"/>
      <point x="413" y="230"/>
      <point x="434" y="224"/>
      <point x="445" y="220" type="curve" smooth="yes"/>
      <point x="452" y="213"/>
      <point x="454" y="202"/>
      <point x="454" y="185" type="curve" smooth="yes"/>
      <point x="454" y="174"/>
      <point x="455" y="160"/>
      <point x="455" y="150" type="curve" smooth="yes"/>
      <point x="455" y="122"/>
      <point x="450" y="101"/>
      <point x="446" y="89" type="curve" smooth="yes"/>
      <point x="442" y="80"/>
      <point x="432" y="60"/>
      <point x="410" y="60" type="curve" smooth="yes"/>
      <point x="340" y="60"/>
      <point x="289" y="161"/>
      <point x="289" y="324" type="curve" smooth="yes"/>
      <point x="289" y="463"/>
      <point x="370" y="588"/>
      <point x="489" y="588" type="curve" smooth="yes"/>
      <point x="567" y="588"/>
      <point x="610" y="551"/>
      <point x="621" y="536" type="curve" smooth="yes"/>
      <point x="629" y="517"/>
      <point x="632" y="504"/>
      <point x="637" y="483" type="curve"/>
      <point x="639" y="468"/>
      <point x="647" y="450"/>
      <point x="660" y="450" type="curve" smooth="yes"/>
      <point x="678" y="450"/>
      <point x="685" y="462"/>
      <point x="685" y="475" type="curve" smooth="yes"/>
      <point x="685" y="509"/>
      <point x="681" y="564"/>
      <point x="679" y="616" type="curve" smooth="yes"/>
      <point x="679" y="623"/>
      <point x="677" y="625"/>
      <point x="673" y="628" type="curve" smooth="yes"/>
      <point x="648" y="641"/>
      <point x="545" y="661"/>
      <point x="493" y="661" type="curve" smooth="yes"/>
      <point x="231" y="661"/>
      <point x="30" y="527"/>
      <point x="30" y="311" type="curve" smooth="yes"/>
      <point x="30" y="133"/>
      <point x="199" y="-12"/>
    </contour>
  </outline>
</glyph>
<glyph name="J" format="1">
  <advance width="423"/>
  <unicode hex="004A"/>
  <outline>
    <contour>
      <point x="103" y="-200" type="curve" smooth="yes"/>
      <point x="166" y="-200"/>
      <point x="213" y="-180"/>
      <point x="249" y="-148" type="curve" smooth="yes"/>
      <point x="297" y="-104"/>
      <point x="333" y="-32"/>
      <point x="333" y="47" type="curve" smooth="yes"/>
      <point x="333" y="506" type="line" smooth="yes"/>
      <point x="333" y="566"/>
      <point x="354" y="586"/>
      <point x="386" y="598" type="curve" smooth="yes"/>
      <point x="400" y="605"/>
      <point x="407" y="617"/>
      <point x="407" y="633" type="curve" smooth="yes"/>
      <point x="407" y="648"/>
      <point x="399" y="653"/>
      <point x="389" y="653" type="curve" smooth="yes"/>
      <point x="308" y="653"/>
      <point x="286" y="648"/>
      <point x="221" y="648" type="curve" smooth="yes"/>
      <point x="151" y="648"/>
      <point x="127" y="653"/>
      <point x="46" y="653" type="curve" smooth="yes"/>
      <point x="36" y="653"/>
      <point x="27" y="648"/>
      <point x="27" y="633" type="curve" smooth="yes"/>
      <point x="27" y="617"/>
      <point x="34" y="605"/>
      <point x="49" y="598" type="curve" smooth="yes"/>
      <point x="81" y="586"/>
      <point x="91" y="566"/>
      <point x="91" y="506" type="curve" smooth="yes"/>
      <point x="91" y="-1" type="line" smooth="yes"/>
      <point x="91" y="-84"/>
      <point x="80" y="-135"/>
      <point x="50" y="-135" type="curve" smooth="yes"/>
      <point x="38" y="-135"/>
      <point x="31" y="-130"/>
      <point x="26" y="-120" type="curve" smooth="yes"/>
      <point x="18" y="-111"/>
      <point x="14" y="-104"/>
      <point x="-8" y="-104" type="curve" smooth="yes"/>
      <point x="-31" y="-104"/>
      <point x="-47" y="-127"/>
      <point x="-47" y="-151" type="curve" smooth="yes"/>
      <point x="-47" y="-182"/>
      <point x="4" y="-200"/>
    </contour>
  </outline>
</glyph>
<glyph name="K" format="1">
  <advance width="827"/>
  <unicode hex="004B"/>
  <outline>
    <contour>
      <point x="64" y="-5" type="curve" smooth="yes"/>
      <point x="134" y="-5"/>
      <point x="150" y="4"/>
      <point x="207" y="4" type="curve" smooth="yes"/>
      <point x="263" y="4"/>
      <point x="284" y="-5"/>
      <point x="350" y="-5" type="curve" smooth="yes"/>
      <point x="371" y="-5"/>
      <point x="386" y="4"/>
      <point x="386" y="18" type="curve" smooth="yes"/>
      <point x="386" y="34"/>
      <point x="381" y="40"/>
      <point x="368" y="47" type="curve" smooth="yes"/>
      <point x="344" y="60"/>
      <point x="317" y="86"/>
      <point x="318" y="142" type="curve" smooth="yes"/>
      <point x="319" y="192"/>
      <point x="319" y="222"/>
      <point x="319" y="285" type="curve" smooth="yes"/>
      <point x="319" y="292"/>
      <point x="319" y="306"/>
      <point x="322" y="306" type="curve" smooth="yes"/>
      <point x="325" y="306"/>
      <point x="332" y="297"/>
      <point x="336" y="289" type="curve"/>
      <point x="456" y="80" type="line" smooth="yes"/>
      <point x="457" y="76"/>
      <point x="459" y="72"/>
      <point x="459" y="68" type="curve" smooth="yes"/>
      <point x="459" y="63"/>
      <point x="458" y="60"/>
      <point x="454" y="57" type="curve"/>
      <point x="442" y="49"/>
      <point x="437" y="40"/>
      <point x="437" y="22" type="curve" smooth="yes"/>
      <point x="437" y="5"/>
      <point x="452" y="-1"/>
      <point x="473" y="-1" type="curve" smooth="yes"/>
      <point x="529" y="-1"/>
      <point x="552" y="0"/>
      <point x="583" y="0" type="curve" smooth="yes"/>
      <point x="652" y="0"/>
      <point x="726" y="-5"/>
      <point x="799" y="-5" type="curve" smooth="yes"/>
      <point x="820" y="-5"/>
      <point x="836" y="1"/>
      <point x="836" y="18" type="curve" smooth="yes"/>
      <point x="836" y="36"/>
      <point x="829" y="45"/>
      <point x="806" y="52" type="curve" smooth="yes"/>
      <point x="768" y="66"/>
      <point x="756" y="68"/>
      <point x="725" y="116" type="curve" smooth="yes"/>
      <point x="523" y="422" type="line" smooth="yes"/>
      <point x="518" y="429"/>
      <point x="516" y="436"/>
      <point x="520" y="440" type="curve"/>
      <point x="539" y="488"/>
      <point x="551" y="505"/>
      <point x="571" y="543" type="curve" smooth="yes"/>
      <point x="609" y="576"/>
      <point x="694" y="589"/>
      <point x="756" y="595" type="curve" smooth="yes"/>
      <point x="798" y="602"/>
      <point x="811" y="617"/>
      <point x="811" y="634" type="curve" smooth="yes"/>
      <point x="811" y="647"/>
      <point x="799" y="655"/>
      <point x="782" y="655" type="curve" smooth="yes"/>
      <point x="766" y="655"/>
      <point x="636" y="651"/>
      <point x="563" y="651" type="curve" smooth="yes"/>
      <point x="481" y="651" type="line" smooth="yes"/>
      <point x="457" y="651"/>
      <point x="440" y="645"/>
      <point x="440" y="631" type="curve" smooth="yes"/>
      <point x="440" y="614"/>
      <point x="442" y="606"/>
      <point x="457" y="596" type="curve" smooth="yes"/>
      <point x="460" y="594"/>
      <point x="460" y="590"/>
      <point x="460" y="584" type="curve" smooth="yes"/>
      <point x="460" y="579"/>
      <point x="459" y="574"/>
      <point x="458" y="569" type="curve" smooth="yes"/>
      <point x="340" y="384" type="line"/>
      <point x="335" y="376"/>
      <point x="327" y="366"/>
      <point x="323" y="366" type="curve" smooth="yes"/>
      <point x="319" y="366"/>
      <point x="319" y="380"/>
      <point x="319" y="385" type="curve" smooth="yes"/>
      <point x="319" y="508" type="line" smooth="yes"/>
      <point x="319" y="558"/>
      <point x="329" y="587"/>
      <point x="352" y="597" type="curve" smooth="yes"/>
      <point x="366" y="603"/>
      <point x="372" y="618"/>
      <point x="372" y="632" type="curve" smooth="yes"/>
      <point x="372" y="644"/>
      <point x="356" y="653"/>
      <point x="334" y="653" type="curve" smooth="yes"/>
      <point x="263" y="653"/>
      <point x="258" y="650"/>
      <point x="207" y="650" type="curve" smooth="yes"/>
      <point x="150" y="650"/>
      <point x="131" y="653"/>
      <point x="60" y="653" type="curve" smooth="yes"/>
      <point x="37" y="653"/>
      <point x="21" y="648"/>
      <point x="21" y="636" type="curve" smooth="yes"/>
      <point x="21" y="622"/>
      <point x="27" y="611"/>
      <point x="39" y="605" type="curve" smooth="yes"/>
      <point x="68" y="591"/>
      <point x="77" y="577"/>
      <point x="77" y="521" type="curve" smooth="yes"/>
      <point x="77" y="134" type="line" smooth="yes"/>
      <point x="77" y="78"/>
      <point x="73" y="57"/>
      <point x="44" y="47" type="curve" smooth="yes"/>
      <point x="31" y="42"/>
      <point x="26" y="34"/>
      <point x="26" y="18" type="curve" smooth="yes"/>
      <point x="26" y="4"/>
      <point x="42" y="-5"/>
    </contour>
  </outline>
</glyph>
<glyph name="M" format="1">
  <advance width="920"/>
  <unicode hex="004D"/>
  <outline>
    <contour>
      <point x="32" y="-5" type="curve" smooth="yes"/>
      <point x="69" y="-5"/>
      <point x="71" y="0"/>
      <point x="96" y="0" type="curve" smooth="yes"/>
      <point x="122" y="0"/>
      <point x="124" y="-5"/>
      <point x="163" y="-5" type="curve" smooth="yes"/>
      <point x="174" y="-5"/>
      <point x="183" y="0"/>
      <point x="183" y="15" type="curve" smooth="yes"/>
      <point x="183" y="32"/>
      <point x="176" y="42"/>
      <point x="162" y="49" type="curve" smooth="yes"/>
      <point x="138" y="60"/>
      <point x="132" y="98"/>
      <point x="132" y="141" type="curve" smooth="yes"/>
      <point x="132" y="221"/>
      <point x="138" y="290"/>
      <point x="148" y="386" type="curve" smooth="yes"/>
      <point x="148" y="393"/>
      <point x="154" y="393"/>
      <point x="156" y="386" type="curve" smooth="yes"/>
      <point x="204" y="211"/>
      <point x="219" y="152"/>
      <point x="246" y="16" type="curve" smooth="yes"/>
      <point x="259" y="-24"/>
      <point x="425" y="-40"/>
      <point x="450" y="13" type="curve" smooth="yes"/>
      <point x="572" y="373" type="line" smooth="yes"/>
      <point x="576" y="386"/>
      <point x="581" y="387"/>
      <point x="582" y="373" type="curve"/>
      <point x="585" y="266"/>
      <point x="590" y="228"/>
      <point x="591" y="118" type="curve" smooth="yes"/>
      <point x="591" y="74"/>
      <point x="583" y="57"/>
      <point x="559" y="51" type="curve" smooth="yes"/>
      <point x="543" y="47"/>
      <point x="537" y="34"/>
      <point x="537" y="16" type="curve" smooth="yes"/>
      <point x="537" y="1"/>
      <point x="553" y="-5"/>
      <point x="575" y="-5" type="curve" smooth="yes"/>
      <point x="646" y="-5"/>
      <point x="659" y="0"/>
      <point x="712" y="0" type="curve" smooth="yes"/>
      <point x="772" y="0"/>
      <point x="794" y="-5"/>
      <point x="864" y="-5" type="curve" smooth="yes"/>
      <point x="886" y="-5"/>
      <point x="902" y="1"/>
      <point x="902" y="16" type="curve" smooth="yes"/>
      <point x="902" y="34"/>
      <point x="896" y="47"/>
      <point x="881" y="51" type="curve" smooth="yes"/>
      <point x="849" y="60"/>
      <point x="834" y="79"/>
      <point x="833" y="118" type="curve" smooth="yes"/>
      <point x="828" y="260"/>
      <point x="819" y="389"/>
      <point x="819" y="517" type="curve" smooth="yes"/>
      <point x="819" y="540"/>
      <point x="824" y="566"/>
      <point x="834" y="574" type="curve" smooth="yes"/>
      <point x="846" y="583"/>
      <point x="860" y="594"/>
      <point x="871" y="605" type="curve" smooth="yes"/>
      <point x="884" y="619"/>
      <point x="888" y="625"/>
      <point x="888" y="640" type="curve" smooth="yes"/>
      <point x="888" y="654"/>
      <point x="862" y="656"/>
      <point x="852" y="656" type="curve" smooth="yes"/>
      <point x="813" y="656"/>
      <point x="726" y="648"/>
      <point x="657" y="648" type="curve" smooth="yes"/>
      <point x="595" y="648" type="line" smooth="yes"/>
      <point x="588" y="648"/>
      <point x="582" y="643"/>
      <point x="579" y="635" type="curve" smooth="yes"/>
      <point x="576" y="614"/>
      <point x="572" y="588"/>
      <point x="566" y="566" type="curve"/>
      <point x="462" y="262" type="line" smooth="yes"/>
      <point x="459" y="252"/>
      <point x="450" y="255"/>
      <point x="448" y="265" type="curve" smooth="yes"/>
      <point x="374" y="554" type="line" smooth="yes"/>
      <point x="367" y="579"/>
      <point x="363" y="607"/>
      <point x="359" y="631" type="curve" smooth="yes"/>
      <point x="355" y="641"/>
      <point x="345" y="647"/>
      <point x="331" y="647" type="curve" smooth="yes"/>
      <point x="291" y="647"/>
      <point x="115" y="655"/>
      <point x="76" y="655" type="curve" smooth="yes"/>
      <point x="46" y="655"/>
      <point x="26" y="650"/>
      <point x="26" y="633" type="curve" smooth="yes"/>
      <point x="26" y="617"/>
      <point x="32" y="609"/>
      <point x="40" y="605" type="curve" smooth="yes"/>
      <point x="50" y="599"/>
      <point x="61" y="592"/>
      <point x="67" y="577" type="curve" smooth="yes"/>
      <point x="74" y="565"/>
      <point x="80" y="548"/>
      <point x="80" y="526" type="curve" smooth="yes"/>
      <point x="80" y="514"/>
      <point x="81" y="499"/>
      <point x="81" y="487" type="curve" smooth="yes"/>
      <point x="81" y="412"/>
      <point x="72" y="300"/>
      <point x="60" y="140" type="curve" smooth="yes"/>
      <point x="56" y="85"/>
      <point x="47" y="55"/>
      <point x="32" y="48" type="curve" smooth="yes"/>
      <point x="17" y="41"/>
      <point x="11" y="32"/>
      <point x="11" y="15" type="curve" smooth="yes"/>
      <point x="11" y="0"/>
      <point x="19" y="-5"/>
    </contour>
  </outline>
</glyph>
<glyph name="O" format="1">
  <advance width="806"/>
  <unicode hex="004F"/>
  <outline>
    <contour>
      <point x="398" y="-14" type="curve" smooth="yes"/>
      <point x="645" y="-14"/>
      <point x="777" y="108"/>
      <point x="777" y="335" type="curve" smooth="yes"/>
      <point x="777" y="579"/>
      <point x="604" y="664"/>
      <point x="409" y="664" type="curve" smooth="yes"/>
      <point x="154" y="664"/>
      <point x="29" y="542"/>
      <point x="29" y="315" type="curve" smooth="yes"/>
      <point x="29" y="71"/>
      <point x="194" y="-14"/>
    </contour>
    <contour>
      <point x="408" y="59" type="curve" smooth="yes"/>
      <point x="323" y="59"/>
      <point x="285" y="157"/>
      <point x="285" y="360" type="curve" smooth="yes"/>
      <point x="285" y="537"/>
      <point x="320" y="589"/>
      <point x="397" y="589" type="curve" smooth="yes"/>
      <point x="483" y="589"/>
      <point x="521" y="493"/>
      <point x="521" y="291" type="curve" smooth="yes"/>
      <point x="521" y="112"/>
      <point x="486" y="59"/>
    </contour>
  </outline>
</glyph>
<glyph name="P" format="1">
  <advance width="694"/>
  <unicode hex="0050"/>
  <outline>
    <contour>
      <point x="46" y="-5" type="curve" smooth="yes"/>
      <point x="117" y="-5"/>
      <point x="143" y="4"/>
      <point x="209" y="4" type="curve" smooth="yes"/>
      <point x="261" y="4"/>
      <point x="282" y="-5"/>
      <point x="352" y="-5" type="curve" smooth="yes"/>
      <point x="372" y="-5"/>
      <point x="387" y="0"/>
      <point x="387" y="15" type="curve" smooth="yes"/>
      <point x="387" y="31"/>
      <point x="380" y="40"/>
      <point x="366" y="47" type="curve" smooth="yes"/>
      <point x="335" y="57"/>
      <point x="315" y="82"/>
      <point x="315" y="138" type="curve" smooth="yes"/>
      <point x="315" y="557" type="line" smooth="yes"/>
      <point x="315" y="581"/>
      <point x="325" y="591"/>
      <point x="346" y="591" type="curve" smooth="yes"/>
      <point x="399" y="591"/>
      <point x="437" y="553"/>
      <point x="437" y="469" type="curve" smooth="yes"/>
      <point x="437" y="375"/>
      <point x="415" y="322"/>
      <point x="373" y="322" type="curve" smooth="yes"/>
      <point x="369" y="322"/>
      <point x="365" y="323"/>
      <point x="357" y="323" type="curve" smooth="yes"/>
      <point x="347" y="323"/>
      <point x="340" y="310"/>
      <point x="340" y="295" type="curve" smooth="yes"/>
      <point x="340" y="277"/>
      <point x="368" y="254"/>
      <point x="427" y="254" type="curve" smooth="yes"/>
      <point x="604" y="254"/>
      <point x="682" y="357"/>
      <point x="682" y="480" type="curve" smooth="yes"/>
      <point x="682" y="592"/>
      <point x="581" y="658"/>
      <point x="404" y="658" type="curve" smooth="yes"/>
      <point x="373" y="658"/>
      <point x="326" y="652"/>
      <point x="279" y="652" type="curve" smooth="yes"/>
      <point x="196" y="652"/>
      <point x="190" y="653"/>
      <point x="79" y="653" type="curve" smooth="yes"/>
      <point x="44" y="653"/>
      <point x="19" y="646"/>
      <point x="17" y="630" type="curve" smooth="yes"/>
      <point x="17" y="614"/>
      <point x="25" y="604"/>
      <point x="38" y="597" type="curve" smooth="yes"/>
      <point x="67" y="580"/>
      <point x="73" y="554"/>
      <point x="73" y="505" type="curve" smooth="yes"/>
      <point x="73" y="136" type="line" smooth="yes"/>
      <point x="73" y="79"/>
      <point x="56" y="57"/>
      <point x="27" y="47" type="curve" smooth="yes"/>
      <point x="15" y="40"/>
      <point x="8" y="31"/>
      <point x="8" y="15" type="curve" smooth="yes"/>
      <point x="8" y="0"/>
      <point x="24" y="-5"/>
    </contour>
  </outline>
</glyph>
<glyph name="Q" format="1">
  <advance width="806"/>
  <unicode hex="0051"/>
  <outline>
    <contour>
      <point x="790" y="-261" type="curve" smooth="yes"/>
      <point x="839" y="-261"/>
      <point x="891" y="-246"/>
      <point x="935" y="-217" type="curve" smooth="yes"/>
      <point x="954" y="-204"/>
      <point x="960" y="-190"/>
      <point x="959" y="-176" type="curve" smooth="yes"/>
      <point x="959" y="-169"/>
      <point x="947" y="-162"/>
      <point x="939" y="-163" type="curve" smooth="yes"/>
      <point x="933" y="-163"/>
      <point x="924" y="-167"/>
      <point x="918" y="-170" type="curve"/>
      <point x="897" y="-180"/>
      <point x="868" y="-186"/>
      <point x="836" y="-185" type="curve" smooth="yes"/>
      <point x="791" y="-184"/>
      <point x="743" y="-159"/>
      <point x="710" y="-119" type="curve" smooth="yes"/>
      <point x="671" y="-79"/>
      <point x="642" y="-44"/>
      <point x="612" y="3" type="curve"/>
      <point x="610" y="6"/>
      <point x="610" y="9"/>
      <point x="610" y="12" type="curve" smooth="yes"/>
      <point x="610" y="14"/>
      <point x="610" y="17"/>
      <point x="616" y="19" type="curve" smooth="yes"/>
      <point x="720" y="67"/>
      <point x="777" y="173"/>
      <point x="777" y="335" type="curve" smooth="yes"/>
      <point x="777" y="579"/>
      <point x="604" y="664"/>
      <point x="409" y="664" type="curve" smooth="yes"/>
      <point x="154" y="664"/>
      <point x="29" y="542"/>
      <point x="29" y="315" type="curve" smooth="yes"/>
      <point x="29" y="159"/>
      <point x="110" y="47"/>
      <point x="240" y="10" type="curve" smooth="yes"/>
      <point x="328" y="-21"/>
      <point x="373" y="-48"/>
      <point x="409" y="-73" type="curve" smooth="yes"/>
      <point x="442" y="-99"/>
      <point x="470" y="-127"/>
      <point x="517" y="-160" type="curve" smooth="yes"/>
      <point x="619" y="-227"/>
      <point x="667" y="-261"/>
    </contour>
    <contour>
      <point x="408" y="59" type="curve" smooth="yes"/>
      <point x="323" y="59"/>
      <point x="285" y="157"/>
      <point x="285" y="360" type="curve" smooth="yes"/>
      <point x="285" y="537"/>
      <point x="320" y="589"/>
      <point x="397" y="589" type="curve" smooth="yes"/>
      <point x="483" y="589"/>
      <point x="521" y="493"/>
      <point x="521" y="291" type="curve" smooth="yes"/>
      <point x="521" y="112"/>
      <point x="486" y="59"/>
    </contour>
  </outline>
</glyph>
<glyph name="R" format="1">
  <advance width="777"/>
  <unicode hex="0052"/>
  <outline>
    <contour>
      <point x="668" y="-21" type="curve" smooth="yes"/>
      <point x="700" y="-21"/>
      <point x="785" y="-15"/>
      <point x="785" y="31" type="curve" smooth="yes"/>
      <point x="785" y="43"/>
      <point x="782" y="46"/>
      <point x="777" y="46" type="curve" smooth="yes"/>
      <point x="749" y="46"/>
      <point x="729" y="48"/>
      <point x="708" y="77" type="curve" smooth="yes"/>
      <point x="651" y="155"/>
      <point x="622" y="226"/>
      <point x="583" y="311" type="curve" smooth="yes"/>
      <point x="580" y="317"/>
      <point x="580" y="322"/>
      <point x="583" y="324" type="curve"/>
      <point x="616" y="352"/>
      <point x="656" y="402"/>
      <point x="656" y="491" type="curve" smooth="yes"/>
      <point x="656" y="614"/>
      <point x="530" y="655"/>
      <point x="290" y="655" type="curve" smooth="yes"/>
      <point x="235" y="655"/>
      <point x="195" y="650"/>
      <point x="158" y="650" type="curve" smooth="yes"/>
      <point x="120" y="650"/>
      <point x="99" y="654"/>
      <point x="47" y="654" type="curve" smooth="yes"/>
      <point x="32" y="654"/>
      <point x="21" y="646"/>
      <point x="21" y="631" type="curve" smooth="yes"/>
      <point x="21" y="615"/>
      <point x="26" y="609"/>
      <point x="39" y="602" type="curve" smooth="yes"/>
      <point x="63" y="589"/>
      <point x="73" y="573"/>
      <point x="73" y="514" type="curve" smooth="yes"/>
      <point x="73" y="133" type="line" smooth="yes"/>
      <point x="73" y="78"/>
      <point x="69" y="57"/>
      <point x="41" y="47" type="curve" smooth="yes"/>
      <point x="29" y="40"/>
      <point x="25" y="34"/>
      <point x="25" y="18" type="curve" smooth="yes"/>
      <point x="25" y="4"/>
      <point x="38" y="-5"/>
      <point x="57" y="-5" type="curve" smooth="yes"/>
      <point x="124" y="-5"/>
      <point x="156" y="4"/>
      <point x="211" y="4" type="curve" smooth="yes"/>
      <point x="271" y="4"/>
      <point x="288" y="-5"/>
      <point x="352" y="-5" type="curve" smooth="yes"/>
      <point x="372" y="-5"/>
      <point x="386" y="4"/>
      <point x="386" y="18" type="curve" smooth="yes"/>
      <point x="386" y="34"/>
      <point x="381" y="40"/>
      <point x="367" y="47" type="curve" smooth="yes"/>
      <point x="338" y="57"/>
      <point x="315" y="94"/>
      <point x="315" y="142" type="curve" smooth="yes"/>
      <point x="315" y="275" type="line" smooth="yes"/>
      <point x="315" y="287"/>
      <point x="317" y="295"/>
      <point x="322" y="294" type="curve" smooth="yes"/>
      <point x="333" y="292"/>
      <point x="349" y="287"/>
      <point x="365" y="274" type="curve" smooth="yes"/>
      <point x="375" y="265"/>
      <point x="381" y="255"/>
      <point x="388" y="237" type="curve" smooth="yes"/>
      <point x="429" y="129"/>
      <point x="440" y="102"/>
      <point x="466" y="51" type="curve" smooth="yes"/>
      <point x="503" y="-12"/>
      <point x="589" y="-21"/>
    </contour>
    <contour>
      <point x="342" y="357" type="curve" smooth="yes"/>
      <point x="325" y="357"/>
      <point x="315" y="358"/>
      <point x="315" y="384" type="curve" smooth="yes"/>
      <point x="315" y="446"/>
      <point x="315" y="489"/>
      <point x="315" y="515" type="curve" smooth="yes"/>
      <point x="317" y="569"/>
      <point x="321" y="587"/>
      <point x="343" y="587" type="curve" smooth="yes"/>
      <point x="409" y="587"/>
      <point x="420" y="534"/>
      <point x="420" y="472" type="curve" smooth="yes"/>
      <point x="420" y="411"/>
      <point x="390" y="357"/>
    </contour>
  </outline>
</glyph>
<glyph name="S" format="1">
  <advance width="463"/>
  <unicode hex="0053"/>
  <outline>
    <contour>
      <point x="210" y="-16" type="curve" smooth="yes"/>
      <point x="341" y="-16"/>
      <point x="434" y="73"/>
      <point x="434" y="220" type="curve" smooth="yes"/>
      <point x="434" y="313"/>
      <point x="387" y="365"/>
      <point x="289" y="415" type="curve" smooth="yes"/>
      <point x="186" y="455"/>
      <point x="159" y="481"/>
      <point x="159" y="526" type="curve" smooth="yes"/>
      <point x="159" y="573"/>
      <point x="181" y="591"/>
      <point x="253" y="591" type="curve" smooth="yes"/>
      <point x="334" y="591"/>
      <point x="363" y="579"/>
      <point x="375" y="505" type="curve" smooth="yes"/>
      <point x="378" y="492"/>
      <point x="387" y="488"/>
      <point x="400" y="488" type="curve" smooth="yes"/>
      <point x="410" y="488"/>
      <point x="427" y="494"/>
      <point x="427" y="509" type="curve" smooth="yes"/>
      <point x="427" y="543"/>
      <point x="420" y="582"/>
      <point x="413" y="613" type="curve" smooth="yes"/>
      <point x="409" y="626"/>
      <point x="398" y="636"/>
      <point x="385" y="642" type="curve" smooth="yes"/>
      <point x="363" y="651"/>
      <point x="333" y="664"/>
      <point x="274" y="664" type="curve" smooth="yes"/>
      <point x="93" y="664"/>
      <point x="44" y="572"/>
      <point x="44" y="467" type="curve" smooth="yes"/>
      <point x="44" y="348"/>
      <point x="112" y="307"/>
      <point x="225" y="260" type="curve" smooth="yes"/>
      <point x="321" y="216"/>
      <point x="322" y="175"/>
      <point x="322" y="146" type="curve" smooth="yes"/>
      <point x="322" y="83"/>
      <point x="297" y="56"/>
      <point x="244" y="56" type="curve" smooth="yes"/>
      <point x="160" y="56"/>
      <point x="110" y="70"/>
      <point x="77" y="160" type="curve" smooth="yes"/>
      <point x="73" y="169"/>
      <point x="65" y="177"/>
      <point x="52" y="177" type="curve" smooth="yes"/>
      <point x="38" y="177"/>
      <point x="26" y="167"/>
      <point x="27" y="157" type="curve"/>
      <point x="29" y="129"/>
      <point x="31" y="79"/>
      <point x="37" y="52" type="curve" smooth="yes"/>
      <point x="39" y="44"/>
      <point x="45" y="37"/>
      <point x="50" y="32" type="curve"/>
      <point x="89" y="1"/>
      <point x="154" y="-16"/>
    </contour>
  </outline>
</glyph>
<glyph name="U" format="1">
  <advance width="632"/>
  <unicode hex="0055"/>
  <outline>
    <contour>
      <point x="324" y="-14" type="curve" smooth="yes"/>
      <point x="527" y="-14"/>
      <point x="574" y="64"/>
      <point x="580" y="217" type="curve" smooth="yes"/>
      <point x="582" y="342"/>
      <point x="582" y="407"/>
      <point x="586" y="522" type="curve" smooth="yes"/>
      <point x="586" y="562"/>
      <point x="594" y="585"/>
      <point x="607" y="597" type="curve" smooth="yes"/>
      <point x="622" y="608"/>
      <point x="627" y="616"/>
      <point x="627" y="633" type="curve" smooth="yes"/>
      <point x="627" y="647"/>
      <point x="619" y="652"/>
      <point x="606" y="652" type="curve" smooth="yes"/>
      <point x="589" y="652"/>
      <point x="568" y="649"/>
      <point x="543" y="649" type="curve" smooth="yes"/>
      <point x="519" y="649"/>
      <point x="507" y="650"/>
      <point x="483" y="650" type="curve" smooth="yes"/>
      <point x="471" y="650"/>
      <point x="463" y="645"/>
      <point x="463" y="631" type="curve" smooth="yes"/>
      <point x="463" y="614"/>
      <point x="474" y="601"/>
      <point x="484" y="595" type="curve" smooth="yes"/>
      <point x="501" y="583"/>
      <point x="510" y="537"/>
      <point x="510" y="486" type="curve" smooth="yes"/>
      <point x="511" y="409"/>
      <point x="513" y="323"/>
      <point x="513" y="226" type="curve" smooth="yes"/>
      <point x="513" y="120"/>
      <point x="475" y="58"/>
      <point x="410" y="58" type="curve" smooth="yes"/>
      <point x="348" y="58"/>
      <point x="303" y="104"/>
      <point x="303" y="209" type="curve" smooth="yes"/>
      <point x="303" y="525" type="line" smooth="yes"/>
      <point x="303" y="565"/>
      <point x="320" y="588"/>
      <point x="330" y="597" type="curve" smooth="yes"/>
      <point x="343" y="607"/>
      <point x="351" y="616"/>
      <point x="351" y="632" type="curve" smooth="yes"/>
      <point x="351" y="647"/>
      <point x="335" y="652"/>
      <point x="313" y="652" type="curve" smooth="yes"/>
      <point x="281" y="652"/>
      <point x="239" y="650"/>
      <point x="193" y="650" type="curve" smooth="yes"/>
      <point x="137" y="650"/>
      <point x="94" y="653"/>
      <point x="50" y="653" type="curve" smooth="yes"/>
      <point x="28" y="653"/>
      <point x="12" y="648"/>
      <point x="12" y="633" type="curve" smooth="yes"/>
      <point x="12" y="617"/>
      <point x="18" y="607"/>
      <point x="32" y="594" type="curve" smooth="yes"/>
      <point x="44" y="583"/>
      <point x="62" y="569"/>
      <point x="62" y="521" type="curve" smooth="yes"/>
      <point x="62" y="208" type="line" smooth="yes"/>
      <point x="62" y="75"/>
      <point x="150" y="-14"/>
    </contour>
  </outline>
</glyph>
<glyph name="V" format="1">
  <advance width="600"/>
  <unicode hex="0056"/>
  <outline>
    <contour>
      <point x="301" y="-12" type="curve" smooth="yes"/>
      <point x="336" y="-12"/>
      <point x="390" y="-7"/>
      <point x="397" y="7" type="curve" smooth="yes"/>
      <point x="409" y="31"/>
      <point x="417" y="56"/>
      <point x="424" y="79" type="curve" smooth="yes"/>
      <point x="529" y="513" type="line" smooth="yes"/>
      <point x="544" y="565"/>
      <point x="561" y="593"/>
      <point x="592" y="604" type="curve" smooth="yes"/>
      <point x="606" y="609"/>
      <point x="611" y="618"/>
      <point x="611" y="633" type="curve" smooth="yes"/>
      <point x="611" y="645"/>
      <point x="603" y="653"/>
      <point x="593" y="653" type="curve" smooth="yes"/>
      <point x="576" y="653"/>
      <point x="537" y="650"/>
      <point x="512" y="650" type="curve" smooth="yes"/>
      <point x="488" y="650"/>
      <point x="459" y="651"/>
      <point x="442" y="651" type="curve" smooth="yes"/>
      <point x="432" y="651"/>
      <point x="424" y="646"/>
      <point x="424" y="634" type="curve" smooth="yes"/>
      <point x="424" y="620"/>
      <point x="427" y="610"/>
      <point x="449" y="605" type="curve" smooth="yes"/>
      <point x="468" y="600"/>
      <point x="478" y="575"/>
      <point x="465" y="513" type="curve" smooth="yes"/>
      <point x="395" y="236" type="line" smooth="yes"/>
      <point x="394" y="227"/>
      <point x="389" y="230"/>
      <point x="388" y="235" type="curve" smooth="yes"/>
      <point x="322" y="522" type="line"/>
      <point x="319" y="531"/>
      <point x="315" y="547"/>
      <point x="315" y="569" type="curve" smooth="yes"/>
      <point x="315" y="588"/>
      <point x="332" y="600"/>
      <point x="348" y="603" type="curve" smooth="yes"/>
      <point x="366" y="606"/>
      <point x="372" y="619"/>
      <point x="372" y="633" type="curve" smooth="yes"/>
      <point x="372" y="645"/>
      <point x="357" y="652"/>
      <point x="336" y="652" type="curve" smooth="yes"/>
      <point x="311" y="652"/>
      <point x="238" y="650"/>
      <point x="188" y="650" type="curve" smooth="yes"/>
      <point x="130" y="650"/>
      <point x="74" y="653"/>
      <point x="36" y="653" type="curve" smooth="yes"/>
      <point x="15" y="653"/>
      <point x="0" y="648"/>
      <point x="0" y="636" type="curve" smooth="yes"/>
      <point x="0" y="623"/>
      <point x="9" y="614"/>
      <point x="25" y="603" type="curve" smooth="yes"/>
      <point x="50" y="588"/>
      <point x="60" y="556"/>
      <point x="66" y="525" type="curve" smooth="yes"/>
      <point x="171" y="56" type="line" smooth="yes"/>
      <point x="177" y="37"/>
      <point x="186" y="18"/>
      <point x="192" y="2" type="curve" smooth="yes"/>
      <point x="197" y="-8"/>
      <point x="264" y="-12"/>
    </contour>
  </outline>
</glyph>
<glyph name="W" format="1">
  <advance width="996"/>
  <unicode hex="0057"/>
  <outline>
    <contour>
      <point x="297" y="-14" type="curve" smooth="yes"/>
      <point x="349" y="-14"/>
      <point x="431" y="-2"/>
      <point x="439" y="25" type="curve" smooth="yes"/>
      <point x="469" y="123"/>
      <point x="490" y="160"/>
      <point x="514" y="273" type="curve" smooth="yes"/>
      <point x="517" y="286"/>
      <point x="518" y="288"/>
      <point x="521" y="279" type="curve"/>
      <point x="551" y="163"/>
      <point x="557" y="129"/>
      <point x="578" y="20" type="curve" smooth="yes"/>
      <point x="585" y="-4"/>
      <point x="668" y="-10"/>
      <point x="702" y="-10" type="curve" smooth="yes"/>
      <point x="753" y="-10"/>
      <point x="819" y="-5"/>
      <point x="829" y="29" type="curve" smooth="yes"/>
      <point x="935" y="507" type="line"/>
      <point x="942" y="537"/>
      <point x="952" y="586"/>
      <point x="984" y="600" type="curve" smooth="yes"/>
      <point x="1004" y="607"/>
      <point x="1010" y="616"/>
      <point x="1010" y="632" type="curve" smooth="yes"/>
      <point x="1010" y="646"/>
      <point x="1002" y="651"/>
      <point x="991" y="651" type="curve" smooth="yes"/>
      <point x="973" y="651"/>
      <point x="949" y="646"/>
      <point x="926" y="646" type="curve" smooth="yes"/>
      <point x="907" y="646"/>
      <point x="894" y="647"/>
      <point x="875" y="647" type="curve" smooth="yes"/>
      <point x="864" y="647"/>
      <point x="856" y="642"/>
      <point x="856" y="629" type="curve" smooth="yes"/>
      <point x="856" y="612"/>
      <point x="862" y="603"/>
      <point x="868" y="596" type="curve" smooth="yes"/>
      <point x="876" y="588"/>
      <point x="882" y="577"/>
      <point x="882" y="558" type="curve" smooth="yes"/>
      <point x="882" y="547"/>
      <point x="882" y="532"/>
      <point x="877" y="516" type="curve"/>
      <point x="854" y="399"/>
      <point x="821" y="282"/>
      <point x="801" y="193" type="curve"/>
      <point x="799" y="184"/>
      <point x="796" y="180"/>
      <point x="794" y="187" type="curve" smooth="yes"/>
      <point x="755" y="363" type="line"/>
      <point x="754" y="370"/>
      <point x="757" y="391"/>
      <point x="759" y="401" type="curve" smooth="yes"/>
      <point x="771" y="444"/>
      <point x="790" y="524"/>
      <point x="798" y="542" type="curve" smooth="yes"/>
      <point x="815" y="581"/>
      <point x="817" y="594"/>
      <point x="835" y="603" type="curve" smooth="yes"/>
      <point x="849" y="608"/>
      <point x="853" y="619"/>
      <point x="853" y="634" type="curve" smooth="yes"/>
      <point x="853" y="646"/>
      <point x="847" y="651"/>
      <point x="838" y="651" type="curve" smooth="yes"/>
      <point x="820" y="651"/>
      <point x="803" y="646"/>
      <point x="789" y="646" type="curve" smooth="yes"/>
      <point x="776" y="646"/>
      <point x="762" y="649"/>
      <point x="744" y="649" type="curve" smooth="yes"/>
      <point x="732" y="649"/>
      <point x="725" y="645"/>
      <point x="725" y="632" type="curve" smooth="yes"/>
      <point x="725" y="612"/>
      <point x="739" y="609"/>
      <point x="739" y="581" type="curve" smooth="yes"/>
      <point x="739" y="579"/>
      <point x="738" y="574"/>
      <point x="738" y="571" type="curve"/>
      <point x="734" y="554"/>
      <point x="732" y="542"/>
      <point x="723" y="506" type="curve" smooth="yes"/>
      <point x="719" y="489"/>
      <point x="718" y="490"/>
      <point x="713" y="505" type="curve" smooth="yes"/>
      <point x="709" y="524"/>
      <point x="700" y="564"/>
      <point x="699" y="576" type="curve" smooth="yes"/>
      <point x="699" y="579"/>
      <point x="698" y="581"/>
      <point x="698" y="584" type="curve" smooth="yes"/>
      <point x="698" y="610"/>
      <point x="719" y="612"/>
      <point x="719" y="630" type="curve" smooth="yes"/>
      <point x="719" y="644"/>
      <point x="711" y="650"/>
      <point x="700" y="650" type="curve" smooth="yes"/>
      <point x="664" y="650"/>
      <point x="614" y="648"/>
      <point x="560" y="648" type="curve" smooth="yes"/>
      <point x="495" y="648"/>
      <point x="447" y="651"/>
      <point x="390" y="651" type="curve" smooth="yes"/>
      <point x="379" y="651"/>
      <point x="371" y="646"/>
      <point x="371" y="632" type="curve" smooth="yes"/>
      <point x="371" y="617"/>
      <point x="379" y="605"/>
      <point x="400" y="597" type="curve" smooth="yes"/>
      <point x="417" y="588"/>
      <point x="450" y="559"/>
      <point x="460" y="519" type="curve" smooth="yes"/>
      <point x="480" y="423" type="line" smooth="yes"/>
      <point x="483" y="410"/>
      <point x="486" y="402"/>
      <point x="486" y="394" type="curve" smooth="yes"/>
      <point x="486" y="388"/>
      <point x="485" y="381"/>
      <point x="481" y="371" type="curve" smooth="yes"/>
      <point x="426" y="189" type="line"/>
      <point x="422" y="178"/>
      <point x="421" y="175"/>
      <point x="416" y="190" type="curve" smooth="yes"/>
      <point x="374" y="340"/>
      <point x="372" y="373"/>
      <point x="332" y="529" type="curve"/>
      <point x="327" y="540"/>
      <point x="327" y="555"/>
      <point x="327" y="568" type="curve" smooth="yes"/>
      <point x="327" y="582"/>
      <point x="329" y="595"/>
      <point x="334" y="599" type="curve" smooth="yes"/>
      <point x="349" y="608"/>
      <point x="355" y="617"/>
      <point x="355" y="632" type="curve" smooth="yes"/>
      <point x="355" y="645"/>
      <point x="339" y="650"/>
      <point x="316" y="650" type="curve" smooth="yes"/>
      <point x="285" y="650"/>
      <point x="231" y="648"/>
      <point x="175" y="648" type="curve" smooth="yes"/>
      <point x="123" y="648"/>
      <point x="86" y="651"/>
      <point x="40" y="651" type="curve" smooth="yes"/>
      <point x="16" y="651"/>
      <point x="0" y="646"/>
      <point x="0" y="633" type="curve" smooth="yes"/>
      <point x="0" y="618"/>
      <point x="7" y="606"/>
      <point x="32" y="594" type="curve" smooth="yes"/>
      <point x="47" y="583"/>
      <point x="65" y="562"/>
      <point x="77" y="527" type="curve"/>
      <point x="192" y="28" type="line" smooth="yes"/>
      <point x="204" y="-7"/>
      <point x="271" y="-14"/>
    </contour>
  </outline>
</glyph>
<glyph name="X" format="1">
  <advance width="659"/>
  <unicode hex="0058"/>
  <outline>
    <contour>
      <point x="14" y="-5" type="curve" smooth="yes"/>
      <point x="36" y="-5"/>
      <point x="73" y="1"/>
      <point x="102" y="1" type="curve" smooth="yes"/>
      <point x="124" y="1"/>
      <point x="154" y="-1"/>
      <point x="166" y="-1" type="curve" smooth="yes"/>
      <point x="177" y="-1"/>
      <point x="184" y="8"/>
      <point x="184" y="22" type="curve" smooth="yes"/>
      <point x="184" y="36"/>
      <point x="178" y="42"/>
      <point x="167" y="51" type="curve"/>
      <point x="160" y="57"/>
      <point x="160" y="68"/>
      <point x="160" y="79" type="curve" smooth="yes"/>
      <point x="160" y="86"/>
      <point x="161" y="94"/>
      <point x="166" y="102" type="curve" smooth="yes"/>
      <point x="229" y="243" type="line" smooth="yes"/>
      <point x="234" y="252"/>
      <point x="238" y="252"/>
      <point x="244" y="238" type="curve" smooth="yes"/>
      <point x="289" y="129" type="line"/>
      <point x="295" y="115"/>
      <point x="296" y="105"/>
      <point x="296" y="95" type="curve" smooth="yes"/>
      <point x="296" y="72"/>
      <point x="286" y="57"/>
      <point x="279" y="51" type="curve" smooth="yes"/>
      <point x="270" y="44"/>
      <point x="257" y="39"/>
      <point x="257" y="24" type="curve" smooth="yes"/>
      <point x="257" y="10"/>
      <point x="273" y="0"/>
      <point x="295" y="0" type="curve" smooth="yes"/>
      <point x="326" y="0"/>
      <point x="376" y="1"/>
      <point x="430" y="1" type="curve" smooth="yes"/>
      <point x="491" y="1"/>
      <point x="580" y="-5"/>
      <point x="617" y="-5" type="curve" smooth="yes"/>
      <point x="639" y="-5"/>
      <point x="654" y="0"/>
      <point x="654" y="13" type="curve" smooth="yes"/>
      <point x="654" y="28"/>
      <point x="648" y="37"/>
      <point x="625" y="47" type="curve" smooth="yes"/>
      <point x="603" y="57"/>
      <point x="571" y="86"/>
      <point x="550" y="132" type="curve" smooth="yes"/>
      <point x="475" y="317" type="line"/>
      <point x="471" y="332"/>
      <point x="474" y="336"/>
      <point x="484" y="357" type="curve" smooth="yes"/>
      <point x="557" y="508" type="line" smooth="yes"/>
      <point x="579" y="558"/>
      <point x="620" y="594"/>
      <point x="634" y="603" type="curve" smooth="yes"/>
      <point x="653" y="612"/>
      <point x="659" y="619"/>
      <point x="659" y="634" type="curve" smooth="yes"/>
      <point x="659" y="647"/>
      <point x="652" y="657"/>
      <point x="639" y="657" type="curve" smooth="yes"/>
      <point x="617" y="657"/>
      <point x="583" y="651"/>
      <point x="551" y="651" type="curve" smooth="yes"/>
      <point x="526" y="651"/>
      <point x="486" y="653"/>
      <point x="474" y="653" type="curve" smooth="yes"/>
      <point x="462" y="653"/>
      <point x="454" y="644"/>
      <point x="454" y="630" type="curve" smooth="yes"/>
      <point x="454" y="615"/>
      <point x="459" y="604"/>
      <point x="472" y="601" type="curve" smooth="yes"/>
      <point x="481" y="597"/>
      <point x="497" y="590"/>
      <point x="497" y="574" type="curve" smooth="yes"/>
      <point x="497" y="566"/>
      <point x="496" y="556"/>
      <point x="495" y="545" type="curve" smooth="yes"/>
      <point x="440" y="416" type="line" smooth="yes"/>
      <point x="434" y="402"/>
      <point x="431" y="399"/>
      <point x="422" y="419" type="curve" smooth="yes"/>
      <point x="377" y="522" type="line" smooth="yes"/>
      <point x="371" y="539"/>
      <point x="371" y="550"/>
      <point x="371" y="559" type="curve" smooth="yes"/>
      <point x="371" y="581"/>
      <point x="382" y="593"/>
      <point x="389" y="600" type="curve" smooth="yes"/>
      <point x="396" y="607"/>
      <point x="409" y="612"/>
      <point x="409" y="627" type="curve" smooth="yes"/>
      <point x="409" y="641"/>
      <point x="394" y="651"/>
      <point x="372" y="651" type="curve" smooth="yes"/>
      <point x="344" y="651"/>
      <point x="292" y="650"/>
      <point x="238" y="650" type="curve" smooth="yes"/>
      <point x="175" y="650"/>
      <point x="90" y="656"/>
      <point x="50" y="656" type="curve" smooth="yes"/>
      <point x="28" y="656"/>
      <point x="12" y="651"/>
      <point x="12" y="638" type="curve" smooth="yes"/>
      <point x="12" y="623"/>
      <point x="19" y="613"/>
      <point x="41" y="604" type="curve" smooth="yes"/>
      <point x="63" y="592"/>
      <point x="95" y="568"/>
      <point x="115" y="516" type="curve" smooth="yes"/>
      <point x="184" y="359" type="line" smooth="yes"/>
      <point x="197" y="332"/>
      <point x="190" y="317"/>
      <point x="181" y="298" type="curve"/>
      <point x="97" y="140" type="line" smooth="yes"/>
      <point x="72" y="91"/>
      <point x="36" y="58"/>
      <point x="22" y="49" type="curve" smooth="yes"/>
      <point x="2" y="40"/>
      <point x="-4" y="32"/>
      <point x="-4" y="18" type="curve" smooth="yes"/>
      <point x="-4" y="5"/>
      <point x="4" y="-5"/>
    </contour>
  </outline>
</glyph>
<glyph name="Y" format="1">
  <advance width="570"/>
  <unicode hex="0059"/>
  <outline>
    <contour>
      <point x="140" y="-5" type="curve" smooth="yes"/>
      <point x="206" y="-5"/>
      <point x="236" y="0"/>
      <point x="296" y="0" type="curve" smooth="yes"/>
      <point x="353" y="0"/>
      <point x="374" y="-5"/>
      <point x="441" y="-5" type="curve" smooth="yes"/>
      <point x="461" y="-5"/>
      <point x="476" y="0"/>
      <point x="476" y="15" type="curve" smooth="yes"/>
      <point x="476" y="31"/>
      <point x="469" y="40"/>
      <point x="456" y="45" type="curve" smooth="yes"/>
      <point x="425" y="55"/>
      <point x="408" y="89"/>
      <point x="408" y="141" type="curve" smooth="yes"/>
      <point x="408" y="236" type="line" smooth="yes"/>
      <point x="408" y="275"/>
      <point x="408" y="283"/>
      <point x="423" y="326" type="curve" smooth="yes"/>
      <point x="452" y="401"/>
      <point x="473" y="440"/>
      <point x="508" y="523" type="curve" smooth="yes"/>
      <point x="524" y="567"/>
      <point x="533" y="591"/>
      <point x="550" y="597" type="curve" smooth="yes"/>
      <point x="569" y="607"/>
      <point x="584" y="615"/>
      <point x="584" y="629" type="curve" smooth="yes"/>
      <point x="584" y="644"/>
      <point x="578" y="653"/>
      <point x="564" y="653" type="curve" smooth="yes"/>
      <point x="548" y="653"/>
      <point x="519" y="650"/>
      <point x="491" y="650" type="curve" smooth="yes"/>
      <point x="471" y="650"/>
      <point x="443" y="651"/>
      <point x="421" y="651" type="curve" smooth="yes"/>
      <point x="410" y="651"/>
      <point x="402" y="646"/>
      <point x="402" y="633" type="curve" smooth="yes"/>
      <point x="402" y="618"/>
      <point x="414" y="602"/>
      <point x="423" y="599" type="curve" smooth="yes"/>
      <point x="429" y="596"/>
      <point x="435" y="591"/>
      <point x="435" y="569" type="curve" smooth="yes"/>
      <point x="435" y="560"/>
      <point x="435" y="546"/>
      <point x="429" y="527" type="curve" smooth="yes"/>
      <point x="413" y="480"/>
      <point x="402" y="442"/>
      <point x="391" y="415" type="curve" smooth="yes"/>
      <point x="384" y="393"/>
      <point x="381" y="382"/>
      <point x="376" y="382" type="curve" smooth="yes"/>
      <point x="372" y="382"/>
      <point x="366" y="395"/>
      <point x="358" y="420" type="curve" smooth="yes"/>
      <point x="328" y="540" type="line" smooth="yes"/>
      <point x="323" y="556"/>
      <point x="320" y="568"/>
      <point x="320" y="575" type="curve" smooth="yes"/>
      <point x="320" y="590"/>
      <point x="325" y="594"/>
      <point x="332" y="599" type="curve" smooth="yes"/>
      <point x="344" y="606"/>
      <point x="350" y="617"/>
      <point x="350" y="632" type="curve" smooth="yes"/>
      <point x="350" y="646"/>
      <point x="334" y="652"/>
      <point x="310" y="652" type="curve" smooth="yes"/>
      <point x="281" y="652"/>
      <point x="243" y="650"/>
      <point x="200" y="650" type="curve" smooth="yes"/>
      <point x="138" y="650"/>
      <point x="81" y="653"/>
      <point x="40" y="653" type="curve" smooth="yes"/>
      <point x="17" y="653"/>
      <point x="0" y="648"/>
      <point x="0" y="634" type="curve" smooth="yes"/>
      <point x="0" y="619"/>
      <point x="6" y="608"/>
      <point x="26" y="598" type="curve" smooth="yes"/>
      <point x="42" y="587"/>
      <point x="71" y="542"/>
      <point x="78" y="522" type="curve" smooth="yes"/>
      <point x="152" y="330" type="line"/>
      <point x="159" y="311"/>
      <point x="167" y="283"/>
      <point x="167" y="256" type="curve" smooth="yes"/>
      <point x="167" y="141" type="line" smooth="yes"/>
      <point x="167" y="86"/>
      <point x="151" y="55"/>
      <point x="123" y="45" type="curve" smooth="yes"/>
      <point x="110" y="40"/>
      <point x="104" y="31"/>
      <point x="104" y="15" type="curve" smooth="yes"/>
      <point x="104" y="0"/>
      <point x="119" y="-5"/>
    </contour>
  </outline>
</glyph>
<glyph name="Z" format="1">
  <advance width="577"/>
  <unicode hex="005A"/>
  <outline>
    <contour>
      <point x="527" y="-5" type="curve" smooth="yes"/>
      <point x="538" y="-5"/>
      <point x="542" y="4"/>
      <point x="546" y="12" type="curve" smooth="yes"/>
      <point x="553" y="36"/>
      <point x="568" y="132"/>
      <point x="568" y="152" type="curve" smooth="yes"/>
      <point x="568" y="168"/>
      <point x="562" y="176"/>
      <point x="550" y="176" type="curve" smooth="yes"/>
      <point x="531" y="176"/>
      <point x="519" y="152"/>
      <point x="510" y="130" type="curve" smooth="yes"/>
      <point x="501" y="90"/>
      <point x="488" y="73"/>
      <point x="465" y="70" type="curve" smooth="yes"/>
      <point x="443" y="67"/>
      <point x="421" y="65"/>
      <point x="401" y="65" type="curve" smooth="yes"/>
      <point x="380" y="65"/>
      <point x="363" y="67"/>
      <point x="350" y="70" type="curve"/>
      <point x="347" y="71"/>
      <point x="345" y="79"/>
      <point x="345" y="87" type="curve" smooth="yes"/>
      <point x="345" y="91"/>
      <point x="346" y="96"/>
      <point x="347" y="99" type="curve" smooth="yes"/>
      <point x="422" y="289"/>
      <point x="442" y="364"/>
      <point x="522" y="550" type="curve" smooth="yes"/>
      <point x="558" y="631" type="line" smooth="yes"/>
      <point x="560" y="636"/>
      <point x="555" y="649"/>
      <point x="551" y="649" type="curve" smooth="yes"/>
      <point x="462" y="647"/>
      <point x="374" y="646"/>
      <point x="275" y="646" type="curve" smooth="yes"/>
      <point x="221" y="646"/>
      <point x="164" y="646"/>
      <point x="124" y="646" type="curve" smooth="yes"/>
      <point x="102" y="646"/>
      <point x="77" y="656"/>
      <point x="70" y="662" type="curve" smooth="yes"/>
      <point x="62" y="667"/>
      <point x="53" y="676"/>
      <point x="49" y="676" type="curve" smooth="yes"/>
      <point x="46" y="676"/>
      <point x="41" y="674"/>
      <point x="40" y="659" type="curve" smooth="yes"/>
      <point x="38" y="617"/>
      <point x="27" y="562"/>
      <point x="25" y="548" type="curve"/>
      <point x="21" y="536"/>
      <point x="18" y="516"/>
      <point x="19" y="505" type="curve" smooth="yes"/>
      <point x="21" y="495"/>
      <point x="29" y="488"/>
      <point x="38" y="488" type="curve" smooth="yes"/>
      <point x="60" y="488"/>
      <point x="65" y="510"/>
      <point x="72" y="531" type="curve"/>
      <point x="79" y="564"/>
      <point x="86" y="574"/>
      <point x="113" y="578" type="curve" smooth="yes"/>
      <point x="122" y="581"/>
      <point x="144" y="583"/>
      <point x="160" y="583" type="curve" smooth="yes"/>
      <point x="184" y="583"/>
      <point x="208" y="582"/>
      <point x="223" y="581" type="curve"/>
      <point x="228" y="580"/>
      <point x="231" y="578"/>
      <point x="231" y="576" type="curve" smooth="yes"/>
      <point x="232" y="574"/>
      <point x="231" y="572"/>
      <point x="231" y="570" type="curve" smooth="yes"/>
      <point x="156" y="376"/>
      <point x="126" y="293"/>
      <point x="47" y="105" type="curve" smooth="yes"/>
      <point x="33" y="74"/>
      <point x="13" y="21"/>
      <point x="13" y="11" type="curve"/>
      <point x="13" y="11"/>
      <point x="14" y="-3"/>
      <point x="20" y="-3" type="curve" smooth="yes"/>
      <point x="99" y="-3" type="line" smooth="yes"/>
      <point x="138" y="-3"/>
      <point x="179" y="-2"/>
      <point x="220" y="-2" type="curve" smooth="yes"/>
      <point x="311" y="-2"/>
      <point x="411" y="-5"/>
    </contour>
  </outline>
</glyph>
<glyph name="underscore" format="1">
  <advance width="320"/>
  <unicode hex="005F"/>
  <outline>
    <contour>
      <point x="19" y="-192" type="curve" smooth="yes"/>
      <point x="276" y="-192" type="line" smooth="yes"/>
      <point x="297" y="-192"/>
      <point x="319" y="-156"/>
      <point x="319" y="-137" type="curve" smooth="yes"/>
      <point x="319" y="-129"/>
      <point x="308" y="-122"/>
      <point x="301" y="-122" type="curve" smooth="yes"/>
      <point x="33" y="-122" type="line" smooth="yes"/>
      <point x="8" y="-122"/>
      <point x="0" y="-163"/>
      <point x="0" y="-176" type="curve" smooth="yes"/>
      <point x="0" y="-184"/>
      <point x="10" y="-192"/>
    </contour>
  </outline>
</glyph>
<glyph name="grave" format="1">
  <advance width="243"/>
  <unicode hex="0060"/>
  <outline>
    <contour>
      <point x="203" y="499" type="curve" smooth="yes"/>
      <point x="223" y="498"/>
      <point x="232" y="504"/>
      <point x="227" y="526" type="curve" smooth="yes"/>
      <point x="225" y="535"/>
      <point x="224" y="546"/>
      <point x="217" y="560" type="curve" smooth="yes"/>
      <point x="208" y="594"/>
      <point x="202" y="646"/>
      <point x="190" y="679" type="curve" smooth="yes"/>
      <point x="175" y="709"/>
      <point x="149" y="717"/>
      <point x="107" y="717" type="curve" smooth="yes"/>
      <point x="54" y="717"/>
      <point x="13" y="714"/>
      <point x="14" y="697" type="curve" smooth="yes"/>
      <point x="14" y="691"/>
      <point x="20" y="682"/>
      <point x="30" y="670" type="curve" smooth="yes"/>
      <point x="80" y="606"/>
      <point x="70" y="598"/>
      <point x="122" y="546" type="curve" smooth="yes"/>
      <point x="158" y="512"/>
      <point x="187" y="500"/>
    </contour>
  </outline>
</glyph>
<glyph name="a" format="1">
  <advance width="483"/>
  <unicode hex="0061"/>
  <outline>
    <contour>
      <point x="113" y="-14" type="curve" smooth="yes"/>
      <point x="161" y="-14"/>
      <point x="203" y="3"/>
      <point x="252" y="39" type="curve"/>
      <point x="254" y="39" type="line"/>
      <point x="280" y="4"/>
      <point x="317" y="-14"/>
      <point x="364" y="-14" type="curve" smooth="yes"/>
      <point x="387" y="-14"/>
      <point x="440" y="1"/>
      <point x="466" y="23" type="curve" smooth="yes"/>
      <point x="476" y="29"/>
      <point x="483" y="39"/>
      <point x="483" y="47" type="curve" smooth="yes"/>
      <point x="483" y="59"/>
      <point x="476" y="67"/>
      <point x="468" y="67" type="curve" smooth="yes"/>
      <point x="464" y="67"/>
      <point x="460" y="63"/>
      <point x="454" y="56" type="curve" smooth="yes"/>
      <point x="450" y="49"/>
      <point x="447" y="48"/>
      <point x="437" y="48" type="curve" smooth="yes"/>
      <point x="428" y="48"/>
      <point x="423" y="63"/>
      <point x="422" y="87" type="curve" smooth="yes"/>
      <point x="426" y="374" type="line" smooth="yes"/>
      <point x="428" y="425"/>
      <point x="377" y="464"/>
      <point x="308" y="464" type="curve" smooth="yes"/>
      <point x="249" y="464"/>
      <point x="152" y="427"/>
      <point x="90" y="387" type="curve" smooth="yes"/>
      <point x="55" y="365"/>
      <point x="34" y="338"/>
      <point x="34" y="317" type="curve" smooth="yes"/>
      <point x="34" y="312"/>
      <point x="40" y="308"/>
      <point x="53" y="308" type="curve" smooth="yes"/>
      <point x="89" y="308"/>
      <point x="175" y="328"/>
      <point x="180" y="343" type="curve" smooth="yes"/>
      <point x="181" y="348"/>
      <point x="180" y="356"/>
      <point x="180" y="356" type="curve" smooth="yes"/>
      <point x="180" y="365"/>
      <point x="180" y="372"/>
      <point x="184" y="376" type="curve" smooth="yes"/>
      <point x="191" y="385"/>
      <point x="205" y="394"/>
      <point x="217" y="394" type="curve" smooth="yes"/>
      <point x="239" y="394"/>
      <point x="252" y="375"/>
      <point x="251" y="350" type="curve" smooth="yes"/>
      <point x="249" y="286" type="line" smooth="yes"/>
      <point x="248" y="253"/>
      <point x="248" y="250"/>
      <point x="218" y="238" type="curve" smooth="yes"/>
      <point x="104" y="192" type="line" smooth="yes"/>
      <point x="48" y="170"/>
      <point x="23" y="139"/>
      <point x="23" y="87" type="curve" smooth="yes"/>
      <point x="23" y="36"/>
      <point x="74" y="-14"/>
    </contour>
    <contour>
      <point x="209" y="61" type="curve" smooth="yes"/>
      <point x="195" y="61"/>
      <point x="181" y="74"/>
      <point x="181" y="104" type="curve" smooth="yes"/>
      <point x="181" y="135"/>
      <point x="190" y="151"/>
      <point x="233" y="177" type="curve" smooth="yes"/>
      <point x="240" y="181"/>
      <point x="242" y="182"/>
      <point x="246" y="182" type="curve" smooth="yes"/>
      <point x="249" y="182"/>
      <point x="249" y="177"/>
      <point x="249" y="165" type="curve" smooth="yes"/>
      <point x="249" y="114" type="line" smooth="yes"/>
      <point x="248" y="96"/>
      <point x="245" y="88"/>
      <point x="239" y="81" type="curve" smooth="yes"/>
      <point x="232" y="69"/>
      <point x="218" y="61"/>
    </contour>
  </outline>
</glyph>
<glyph name="b" format="1">
  <advance width="568"/>
  <unicode hex="0062"/>
  <outline>
    <contour>
      <point x="345" y="-14" type="curve" smooth="yes"/>
      <point x="464" y="-14"/>
      <point x="546" y="91"/>
      <point x="546" y="244" type="curve" smooth="yes"/>
      <point x="546" y="368"/>
      <point x="468" y="464"/>
      <point x="370" y="464" type="curve" smooth="yes"/>
      <point x="327" y="464"/>
      <point x="266" y="442"/>
      <point x="227" y="405" type="curve"/>
      <point x="220" y="406"/>
      <point x="219" y="413"/>
      <point x="219" y="442" type="curve" smooth="yes"/>
      <point x="219" y="593" type="line" smooth="yes"/>
      <point x="219" y="649"/>
      <point x="222" y="692"/>
      <point x="222" y="697" type="curve" smooth="yes"/>
      <point x="222" y="702"/>
      <point x="219" y="705"/>
      <point x="216" y="705" type="curve" smooth="yes"/>
      <point x="213" y="705"/>
      <point x="207" y="703"/>
      <point x="197" y="697" type="curve" smooth="yes"/>
      <point x="178" y="688"/>
      <point x="76" y="679"/>
      <point x="29" y="673" type="curve" smooth="yes"/>
      <point x="17" y="671"/>
      <point x="8" y="663"/>
      <point x="8" y="654" type="curve" smooth="yes"/>
      <point x="8" y="646"/>
      <point x="11" y="634"/>
      <point x="15" y="631" type="curve" smooth="yes"/>
      <point x="37" y="616"/>
      <point x="43" y="608"/>
      <point x="43" y="558" type="curve" smooth="yes"/>
      <point x="43" y="81" type="line" smooth="yes"/>
      <point x="43" y="56"/>
      <point x="36" y="24"/>
      <point x="36" y="12" type="curve" smooth="yes"/>
      <point x="36" y="4"/>
      <point x="47" y="-3"/>
      <point x="57" y="-3" type="curve" smooth="yes"/>
      <point x="63" y="-3"/>
      <point x="68" y="-1"/>
      <point x="72" y="2" type="curve" smooth="yes"/>
      <point x="81" y="8"/>
      <point x="93" y="15"/>
      <point x="106" y="15" type="curve" smooth="yes"/>
      <point x="117" y="15"/>
      <point x="156" y="7"/>
      <point x="192" y="-1" type="curve" smooth="yes"/>
      <point x="239" y="-8"/>
      <point x="294" y="-14"/>
    </contour>
    <contour>
      <point x="297" y="42" type="curve" smooth="yes"/>
      <point x="254" y="42"/>
      <point x="219" y="78"/>
      <point x="219" y="143" type="curve" smooth="yes"/>
      <point x="219" y="334" type="line"/>
      <point x="236" y="360"/>
      <point x="258" y="378"/>
      <point x="288" y="378" type="curve" smooth="yes"/>
      <point x="343" y="378"/>
      <point x="367" y="284"/>
      <point x="367" y="210" type="curve" smooth="yes"/>
      <point x="367" y="116"/>
      <point x="340" y="42"/>
    </contour>
  </outline>
</glyph>
<glyph name="c" format="1">
  <advance width="382"/>
  <unicode hex="0063"/>
  <outline>
    <contour>
      <point x="238" y="-14" type="curve" smooth="yes"/>
      <point x="282" y="-14"/>
      <point x="321" y="7"/>
      <point x="344" y="51" type="curve" smooth="yes"/>
      <point x="351" y="65"/>
      <point x="356" y="82"/>
      <point x="356" y="91" type="curve" smooth="yes"/>
      <point x="356" y="101"/>
      <point x="356" y="106"/>
      <point x="351" y="106" type="curve" smooth="yes"/>
      <point x="348" y="106"/>
      <point x="343" y="103"/>
      <point x="340" y="100" type="curve" smooth="yes"/>
      <point x="324" y="66"/>
      <point x="307" y="55"/>
      <point x="284" y="55" type="curve" smooth="yes"/>
      <point x="227" y="55"/>
      <point x="194" y="119"/>
      <point x="194" y="232" type="curve" smooth="yes"/>
      <point x="194" y="332"/>
      <point x="220" y="405"/>
      <point x="259" y="405" type="curve" smooth="yes"/>
      <point x="278" y="405"/>
      <point x="296" y="384"/>
      <point x="313" y="361" type="curve" smooth="yes"/>
      <point x="317" y="353"/>
      <point x="323" y="351"/>
      <point x="328" y="351" type="curve" smooth="yes"/>
      <point x="341" y="351"/>
      <point x="364" y="366"/>
      <point x="364" y="390" type="curve" smooth="yes"/>
      <point x="364" y="413"/>
      <point x="354" y="426"/>
      <point x="344" y="436" type="curve" smooth="yes"/>
      <point x="325" y="453"/>
      <point x="301" y="464"/>
      <point x="276" y="464" type="curve" smooth="yes"/>
      <point x="138" y="464"/>
      <point x="22" y="353"/>
      <point x="22" y="203" type="curve" smooth="yes"/>
      <point x="22" y="80"/>
      <point x="115" y="-14"/>
    </contour>
  </outline>
</glyph>
<glyph name="e" format="1">
  <advance width="448"/>
  <unicode hex="0065"/>
  <outline>
    <contour>
      <point x="257" y="-14" type="curve" smooth="yes"/>
      <point x="307" y="-14"/>
      <point x="356" y="0"/>
      <point x="391" y="25" type="curve" smooth="yes"/>
      <point x="416" y="44"/>
      <point x="435" y="74"/>
      <point x="435" y="107" type="curve" smooth="yes"/>
      <point x="435" y="118"/>
      <point x="431" y="126"/>
      <point x="420" y="126" type="curve" smooth="yes"/>
      <point x="414" y="126"/>
      <point x="409" y="122"/>
      <point x="398" y="106" type="curve" smooth="yes"/>
      <point x="375" y="68"/>
      <point x="344" y="47"/>
      <point x="309" y="47" type="curve" smooth="yes"/>
      <point x="237" y="47"/>
      <point x="190" y="128"/>
      <point x="190" y="234" type="curve" smooth="yes"/>
      <point x="190" y="268"/>
      <point x="194" y="276"/>
      <point x="205" y="276" type="curve" smooth="yes"/>
      <point x="395" y="276" type="line" smooth="yes"/>
      <point x="419" y="276"/>
      <point x="430" y="288"/>
      <point x="430" y="313" type="curve" smooth="yes"/>
      <point x="430" y="401"/>
      <point x="362" y="463"/>
      <point x="267" y="463" type="curve" smooth="yes"/>
      <point x="133" y="463"/>
      <point x="20" y="356"/>
      <point x="20" y="228" type="curve" smooth="yes"/>
      <point x="20" y="83"/>
      <point x="113" y="-14"/>
    </contour>
    <contour>
      <point x="212" y="321" type="line" smooth="yes"/>
      <point x="208" y="321"/>
      <point x="206" y="324"/>
      <point x="206" y="331" type="curve" smooth="yes"/>
      <point x="206" y="368"/>
      <point x="232" y="408"/>
      <point x="258" y="408" type="curve" smooth="yes"/>
      <point x="282" y="408"/>
      <point x="303" y="381"/>
      <point x="303" y="345" type="curve" smooth="yes"/>
      <point x="303" y="333"/>
      <point x="301" y="327"/>
      <point x="298" y="326" type="curve" smooth="yes"/>
      <point x="286" y="322"/>
      <point x="276" y="321"/>
      <point x="259" y="321" type="curve" smooth="yes"/>
    </contour>
  </outline>
</glyph>
<glyph name="f" format="1">
  <advance width="325"/>
  <unicode hex="0066"/>
  <outline>
    <contour>
      <point x="38" y="0" type="curve" smooth="yes"/>
      <point x="82" y="0"/>
      <point x="105" y="4"/>
      <point x="144" y="4" type="curve" smooth="yes"/>
      <point x="183" y="4"/>
      <point x="227" y="0"/>
      <point x="270" y="0" type="curve" smooth="yes"/>
      <point x="280" y="0"/>
      <point x="293" y="1"/>
      <point x="293" y="15" type="curve" smooth="yes"/>
      <point x="293" y="33"/>
      <point x="284" y="40"/>
      <point x="278" y="45" type="curve" smooth="yes"/>
      <point x="272" y="57"/>
      <point x="234" y="62"/>
      <point x="234" y="101" type="curve" smooth="yes"/>
      <point x="234" y="365" type="line" smooth="yes"/>
      <point x="234" y="373"/>
      <point x="236" y="378"/>
      <point x="247" y="378" type="curve" smooth="yes"/>
      <point x="281" y="378" type="line" smooth="yes"/>
      <point x="296" y="378"/>
      <point x="304" y="382"/>
      <point x="308" y="392" type="curve" smooth="yes"/>
      <point x="310" y="401"/>
      <point x="319" y="430"/>
      <point x="319" y="439" type="curve" smooth="yes"/>
      <point x="319" y="445"/>
      <point x="315" y="450"/>
      <point x="310" y="450" type="curve" smooth="yes"/>
      <point x="241" y="450" type="line" smooth="yes"/>
      <point x="237" y="450"/>
      <point x="234" y="452"/>
      <point x="234" y="458" type="curve" smooth="yes"/>
      <point x="234" y="511" type="line" smooth="yes"/>
      <point x="234" y="604"/>
      <point x="261" y="648"/>
      <point x="298" y="648" type="curve" smooth="yes"/>
      <point x="321" y="648"/>
      <point x="327" y="635"/>
      <point x="335" y="623" type="curve" smooth="yes"/>
      <point x="343" y="610"/>
      <point x="348" y="595"/>
      <point x="364" y="595" type="curve" smooth="yes"/>
      <point x="379" y="595"/>
      <point x="394" y="607"/>
      <point x="394" y="632" type="curve" smooth="yes"/>
      <point x="394" y="676"/>
      <point x="363" y="707"/>
      <point x="281" y="707" type="curve" smooth="yes"/>
      <point x="199" y="707"/>
      <point x="58" y="659"/>
      <point x="58" y="496" type="curve" smooth="yes"/>
      <point x="58" y="455" type="line"/>
      <point x="45" y="446"/>
      <point x="37" y="432"/>
      <point x="25" y="415" type="curve" smooth="yes"/>
      <point x="19" y="408"/>
      <point x="16" y="402"/>
      <point x="16" y="395" type="curve" smooth="yes"/>
      <point x="16" y="388"/>
      <point x="23" y="379"/>
      <point x="25" y="378" type="curve"/>
      <point x="39" y="376"/>
      <point x="50" y="376"/>
      <point x="58" y="376" type="curve"/>
      <point x="58" y="101" type="line" smooth="yes"/>
      <point x="58" y="62"/>
      <point x="42" y="53"/>
      <point x="31" y="45" type="curve" smooth="yes"/>
      <point x="24" y="40"/>
      <point x="16" y="33"/>
      <point x="16" y="15" type="curve" smooth="yes"/>
      <point x="16" y="1"/>
      <point x="29" y="0"/>
    </contour>
  </outline>
</glyph>
<glyph name="h" format="1">
  <advance width="579"/>
  <unicode hex="0068"/>
  <outline>
    <contour>
      <point x="36" y="-3" type="curve" smooth="yes"/>
      <point x="88" y="-3"/>
      <point x="95" y="6"/>
      <point x="141" y="6" type="curve" smooth="yes"/>
      <point x="187" y="6"/>
      <point x="192" y="-3"/>
      <point x="244" y="-3" type="curve" smooth="yes"/>
      <point x="262" y="-3"/>
      <point x="270" y="2"/>
      <point x="270" y="17" type="curve" smooth="yes"/>
      <point x="270" y="31"/>
      <point x="265" y="38"/>
      <point x="255" y="45" type="curve" smooth="yes"/>
      <point x="243" y="54"/>
      <point x="226" y="61"/>
      <point x="228" y="97" type="curve" smooth="yes"/>
      <point x="228" y="305" type="line" smooth="yes"/>
      <point x="228" y="336"/>
      <point x="233" y="347"/>
      <point x="246" y="360" type="curve" smooth="yes"/>
      <point x="258" y="372"/>
      <point x="276" y="379"/>
      <point x="290" y="379" type="curve" smooth="yes"/>
      <point x="323" y="379"/>
      <point x="343" y="348"/>
      <point x="343" y="289" type="curve" smooth="yes"/>
      <point x="343" y="98" type="line" smooth="yes"/>
      <point x="343" y="62"/>
      <point x="328" y="55"/>
      <point x="316" y="45" type="curve" smooth="yes"/>
      <point x="309" y="39"/>
      <point x="301" y="31"/>
      <point x="301" y="14" type="curve" smooth="yes"/>
      <point x="301" y="-1"/>
      <point x="314" y="-3"/>
      <point x="328" y="-3" type="curve" smooth="yes"/>
      <point x="380" y="-3"/>
      <point x="388" y="6"/>
      <point x="434" y="6" type="curve" smooth="yes"/>
      <point x="479" y="6"/>
      <point x="485" y="-3"/>
      <point x="538" y="-3" type="curve" smooth="yes"/>
      <point x="552" y="-3"/>
      <point x="564" y="-1"/>
      <point x="564" y="14" type="curve" smooth="yes"/>
      <point x="564" y="31"/>
      <point x="555" y="38"/>
      <point x="549" y="45" type="curve" smooth="yes"/>
      <point x="538" y="57"/>
      <point x="522" y="62"/>
      <point x="522" y="98" type="curve" smooth="yes"/>
      <point x="522" y="328" type="line" smooth="yes"/>
      <point x="522" y="406"/>
      <point x="465" y="464"/>
      <point x="391" y="464" type="curve" smooth="yes"/>
      <point x="303" y="464"/>
      <point x="233" y="425"/>
      <point x="196" y="394" type="curve"/>
      <point x="235" y="387" type="line"/>
      <point x="230" y="402"/>
      <point x="228" y="418"/>
      <point x="228" y="438" type="curve" smooth="yes"/>
      <point x="228" y="562" type="line" smooth="yes"/>
      <point x="228" y="669"/>
      <point x="233" y="686"/>
      <point x="233" y="698" type="curve" smooth="yes"/>
      <point x="233" y="702"/>
      <point x="230" y="705"/>
      <point x="228" y="705" type="curve" smooth="yes"/>
      <point x="224" y="705"/>
      <point x="220" y="704"/>
      <point x="217" y="703" type="curve" smooth="yes"/>
      <point x="163" y="691"/>
      <point x="79" y="680"/>
      <point x="41" y="674" type="curve" smooth="yes"/>
      <point x="21" y="670"/>
      <point x="18" y="663"/>
      <point x="18" y="653" type="curve" smooth="yes"/>
      <point x="18" y="639"/>
      <point x="20" y="630"/>
      <point x="30" y="628" type="curve" smooth="yes"/>
      <point x="45" y="623"/>
      <point x="51" y="597"/>
      <point x="51" y="566" type="curve" smooth="yes"/>
      <point x="51" y="97" type="line" smooth="yes"/>
      <point x="52" y="61"/>
      <point x="37" y="52"/>
      <point x="25" y="45" type="curve" smooth="yes"/>
      <point x="15" y="40"/>
      <point x="10" y="34"/>
      <point x="10" y="17" type="curve" smooth="yes"/>
      <point x="10" y="2"/>
      <point x="20" y="-3"/>
    </contour>
  </outline>
</glyph>
<glyph name="i" format="1">
  <advance width="288"/>
  <unicode hex="0069"/>
  <outline>
    <contour>
      <point x="38" y="-3" type="curve" smooth="yes"/>
      <point x="89" y="-3"/>
      <point x="99" y="2"/>
      <point x="144" y="2" type="curve" smooth="yes"/>
      <point x="192" y="6"/>
      <point x="202" y="-3"/>
      <point x="252" y="-3" type="curve" smooth="yes"/>
      <point x="267" y="-3"/>
      <point x="275" y="2"/>
      <point x="275" y="17" type="curve" smooth="yes"/>
      <point x="275" y="34"/>
      <point x="267" y="39"/>
      <point x="261" y="45" type="curve" smooth="yes"/>
      <point x="244" y="55"/>
      <point x="233" y="66"/>
      <point x="233" y="98" type="curve" smooth="yes"/>
      <point x="233" y="338" type="line" smooth="yes"/>
      <point x="233" y="383"/>
      <point x="239" y="448"/>
      <point x="239" y="464" type="curve" smooth="yes"/>
      <point x="239" y="471"/>
      <point x="232" y="478"/>
      <point x="226" y="478" type="curve" smooth="yes"/>
      <point x="216" y="478"/>
      <point x="202" y="473"/>
      <point x="194" y="469" type="curve" smooth="yes"/>
      <point x="164" y="453"/>
      <point x="128" y="443"/>
      <point x="44" y="427" type="curve" smooth="yes"/>
      <point x="30" y="423"/>
      <point x="25" y="417"/>
      <point x="25" y="409" type="curve" smooth="yes"/>
      <point x="25" y="399"/>
      <point x="29" y="389"/>
      <point x="35" y="386" type="curve" smooth="yes"/>
      <point x="57" y="379"/>
      <point x="57" y="351"/>
      <point x="57" y="310" type="curve" smooth="yes"/>
      <point x="57" y="98" type="line" smooth="yes"/>
      <point x="57" y="64"/>
      <point x="47" y="55"/>
      <point x="30" y="45" type="curve" smooth="yes"/>
      <point x="22" y="39"/>
      <point x="15" y="34"/>
      <point x="15" y="17" type="curve" smooth="yes"/>
      <point x="15" y="2"/>
      <point x="24" y="-3"/>
    </contour>
    <contour>
      <point x="142" y="554" type="curve" smooth="yes"/>
      <point x="210" y="554"/>
      <point x="247" y="572"/>
      <point x="247" y="604" type="curve" smooth="yes"/>
      <point x="247" y="637"/>
      <point x="210" y="655"/>
      <point x="142" y="655" type="curve" smooth="yes"/>
      <point x="77" y="655"/>
      <point x="40" y="637"/>
      <point x="40" y="604" type="curve" smooth="yes"/>
      <point x="40" y="572"/>
      <point x="77" y="554"/>
    </contour>
  </outline>
</glyph>
<glyph name="j" format="1">
  <advance width="293"/>
  <unicode hex="006A"/>
  <outline>
    <contour>
      <point x="47" y="-287" type="curve" smooth="yes"/>
      <point x="104" y="-287"/>
      <point x="170" y="-220"/>
      <point x="202" y="-152" type="curve" smooth="yes"/>
      <point x="239" y="-72"/>
      <point x="239" y="29"/>
      <point x="239" y="91" type="curve" smooth="yes"/>
      <point x="239" y="319" type="line" smooth="yes"/>
      <point x="239" y="364"/>
      <point x="241" y="432"/>
      <point x="244" y="463" type="curve"/>
      <point x="245" y="474"/>
      <point x="242" y="478"/>
      <point x="236" y="478" type="curve" smooth="yes"/>
      <point x="232" y="478"/>
      <point x="223" y="475"/>
      <point x="212" y="472" type="curve" smooth="yes"/>
      <point x="179" y="461"/>
      <point x="126" y="438"/>
      <point x="51" y="428" type="curve" smooth="yes"/>
      <point x="34" y="424"/>
      <point x="29" y="414"/>
      <point x="29" y="409" type="curve" smooth="yes"/>
      <point x="29" y="398"/>
      <point x="32" y="393"/>
      <point x="42" y="388" type="curve" smooth="yes"/>
      <point x="60" y="376"/>
      <point x="63" y="365"/>
      <point x="63" y="327" type="curve" smooth="yes"/>
      <point x="63" y="75" type="line" smooth="yes"/>
      <point x="63" y="10"/>
      <point x="61" y="-114"/>
      <point x="42" y="-173" type="curve" smooth="yes"/>
      <point x="30" y="-209"/>
      <point x="16" y="-225"/>
      <point x="10" y="-228" type="curve"/>
      <point x="0" y="-231"/>
      <point x="-10" y="-245"/>
      <point x="-10" y="-260" type="curve" smooth="yes"/>
      <point x="-10" y="-278"/>
      <point x="25" y="-287"/>
    </contour>
    <contour>
      <point x="149" y="554" type="curve" smooth="yes"/>
      <point x="216" y="554"/>
      <point x="253" y="572"/>
      <point x="253" y="604" type="curve" smooth="yes"/>
      <point x="253" y="637"/>
      <point x="216" y="655"/>
      <point x="149" y="655" type="curve" smooth="yes"/>
      <point x="83" y="655"/>
      <point x="46" y="637"/>
      <point x="46" y="604" type="curve" smooth="yes"/>
      <point x="46" y="572"/>
      <point x="83" y="554"/>
    </contour>
  </outline>
</glyph>
<glyph name="m" format="1">
  <advance width="879"/>
  <unicode hex="006D"/>
  <outline>
    <contour>
      <point x="44" y="-3" type="curve" smooth="yes"/>
      <point x="95" y="-3"/>
      <point x="100" y="2"/>
      <point x="144" y="2" type="curve" smooth="yes"/>
      <point x="190" y="2"/>
      <point x="195" y="-3"/>
      <point x="247" y="-3" type="curve" smooth="yes"/>
      <point x="262" y="-3"/>
      <point x="275" y="2"/>
      <point x="275" y="17" type="curve" smooth="yes"/>
      <point x="275" y="34"/>
      <point x="266" y="41"/>
      <point x="258" y="45" type="curve" smooth="yes"/>
      <point x="245" y="51"/>
      <point x="233" y="59"/>
      <point x="233" y="98" type="curve" smooth="yes"/>
      <point x="233" y="310" type="line" smooth="yes"/>
      <point x="233" y="333"/>
      <point x="238" y="349"/>
      <point x="249" y="358" type="curve" smooth="yes"/>
      <point x="265" y="372"/>
      <point x="282" y="377"/>
      <point x="302" y="377" type="curve" smooth="yes"/>
      <point x="328" y="377"/>
      <point x="351" y="346"/>
      <point x="351" y="313" type="curve" smooth="yes"/>
      <point x="351" y="98" type="line" smooth="yes"/>
      <point x="351" y="58"/>
      <point x="335" y="52"/>
      <point x="322" y="45" type="curve" smooth="yes"/>
      <point x="314" y="40"/>
      <point x="308" y="34"/>
      <point x="308" y="17" type="curve" smooth="yes"/>
      <point x="308" y="2"/>
      <point x="319" y="-3"/>
      <point x="334" y="-3" type="curve" smooth="yes"/>
      <point x="385" y="-3"/>
      <point x="395" y="2"/>
      <point x="441" y="2" type="curve" smooth="yes"/>
      <point x="485" y="2"/>
      <point x="494" y="-3"/>
      <point x="545" y="-3" type="curve" smooth="yes"/>
      <point x="562" y="-3"/>
      <point x="571" y="2"/>
      <point x="571" y="17" type="curve" smooth="yes"/>
      <point x="571" y="32"/>
      <point x="565" y="40"/>
      <point x="556" y="45" type="curve" smooth="yes"/>
      <point x="543" y="51"/>
      <point x="527" y="58"/>
      <point x="527" y="98" type="curve" smooth="yes"/>
      <point x="527" y="310" type="line" smooth="yes"/>
      <point x="527" y="334"/>
      <point x="534" y="349"/>
      <point x="545" y="359" type="curve" smooth="yes"/>
      <point x="559" y="372"/>
      <point x="576" y="377"/>
      <point x="597" y="377" type="curve" smooth="yes"/>
      <point x="623" y="377"/>
      <point x="645" y="346"/>
      <point x="645" y="313" type="curve" smooth="yes"/>
      <point x="645" y="98" type="line" smooth="yes"/>
      <point x="645" y="63"/>
      <point x="631" y="53"/>
      <point x="618" y="45" type="curve" smooth="yes"/>
      <point x="609" y="39"/>
      <point x="603" y="34"/>
      <point x="603" y="17" type="curve" smooth="yes"/>
      <point x="603" y="2"/>
      <point x="614" y="-3"/>
      <point x="629" y="-3" type="curve" smooth="yes"/>
      <point x="680" y="-3"/>
      <point x="691" y="2"/>
      <point x="736" y="2" type="curve" smooth="yes"/>
      <point x="782" y="2"/>
      <point x="786" y="-3"/>
      <point x="838" y="-3" type="curve" smooth="yes"/>
      <point x="857" y="-3"/>
      <point x="864" y="2"/>
      <point x="864" y="17" type="curve" smooth="yes"/>
      <point x="864" y="32"/>
      <point x="857" y="37"/>
      <point x="849" y="45" type="curve" smooth="yes"/>
      <point x="837" y="55"/>
      <point x="822" y="63"/>
      <point x="822" y="98" type="curve" smooth="yes"/>
      <point x="822" y="325" type="line" smooth="yes"/>
      <point x="822" y="395"/>
      <point x="780" y="464"/>
      <point x="707" y="464" type="curve" smooth="yes"/>
      <point x="634" y="464"/>
      <point x="573" y="442"/>
      <point x="527" y="408" type="curve"/>
      <point x="523" y="408" type="line"/>
      <point x="500" y="453"/>
      <point x="466" y="464"/>
      <point x="413" y="464" type="curve" smooth="yes"/>
      <point x="326" y="464"/>
      <point x="271" y="439"/>
      <point x="238" y="413" type="curve"/>
      <point x="236" y="413" type="line"/>
      <point x="235" y="414"/>
      <point x="235" y="419"/>
      <point x="235" y="424" type="curve" smooth="yes"/>
      <point x="235" y="436"/>
      <point x="238" y="454"/>
      <point x="238" y="463" type="curve" smooth="yes"/>
      <point x="238" y="474"/>
      <point x="229" y="480"/>
      <point x="218" y="480" type="curve" smooth="yes"/>
      <point x="205" y="480"/>
      <point x="195" y="475"/>
      <point x="180" y="464" type="curve" smooth="yes"/>
      <point x="141" y="455"/>
      <point x="107" y="441"/>
      <point x="53" y="434" type="curve" smooth="yes"/>
      <point x="35" y="427"/>
      <point x="27" y="420"/>
      <point x="27" y="412" type="curve" smooth="yes"/>
      <point x="27" y="403"/>
      <point x="29" y="395"/>
      <point x="37" y="393" type="curve" smooth="yes"/>
      <point x="54" y="384"/>
      <point x="57" y="356"/>
      <point x="57" y="315" type="curve" smooth="yes"/>
      <point x="57" y="98" type="line" smooth="yes"/>
      <point x="57" y="59"/>
      <point x="45" y="51"/>
      <point x="33" y="45" type="curve" smooth="yes"/>
      <point x="23" y="40"/>
      <point x="15" y="32"/>
      <point x="15" y="17" type="curve" smooth="yes"/>
      <point x="15" y="0"/>
      <point x="30" y="-3"/>
    </contour>
  </outline>
</glyph>
<glyph name="o" format="1">
  <advance width="541"/>
  <unicode hex="006F"/>
  <outline>
    <contour>
      <point x="254" y="-14" type="curve" smooth="yes"/>
      <point x="426" y="-14"/>
      <point x="519" y="75"/>
      <point x="519" y="239" type="curve" smooth="yes"/>
      <point x="519" y="377"/>
      <point x="426" y="464"/>
      <point x="278" y="464" type="curve" smooth="yes"/>
      <point x="129" y="464"/>
      <point x="22" y="359"/>
      <point x="22" y="211" type="curve" smooth="yes"/>
      <point x="22" y="67"/>
      <point x="106" y="-14"/>
    </contour>
    <contour>
      <point x="274" y="40" type="curve" smooth="yes"/>
      <point x="231" y="40"/>
      <point x="203" y="106"/>
      <point x="203" y="235" type="curve" smooth="yes"/>
      <point x="203" y="347"/>
      <point x="223" y="409"/>
      <point x="265" y="409" type="curve" smooth="yes"/>
      <point x="310" y="409"/>
      <point x="337" y="345"/>
      <point x="337" y="214" type="curve" smooth="yes"/>
      <point x="337" y="94"/>
      <point x="318" y="40"/>
    </contour>
  </outline>
</glyph>
<glyph name="p" format="1">
  <advance width="586"/>
  <unicode hex="0070"/>
  <outline>
    <contour>
      <point x="36" y="-285" type="curve" smooth="yes"/>
      <point x="85" y="-285"/>
      <point x="93" y="-280"/>
      <point x="136" y="-280" type="curve" smooth="yes"/>
      <point x="180" y="-280"/>
      <point x="206" y="-285"/>
      <point x="255" y="-285" type="curve" smooth="yes"/>
      <point x="268" y="-285"/>
      <point x="281" y="-279"/>
      <point x="281" y="-261" type="curve" smooth="yes"/>
      <point x="281" y="-254"/>
      <point x="278" y="-246"/>
      <point x="266" y="-241" type="curve"/>
      <point x="253" y="-236"/>
      <point x="229" y="-229"/>
      <point x="229" y="-190" type="curve" smooth="yes"/>
      <point x="229" y="-35" type="line" smooth="yes"/>
      <point x="229" y="-28"/>
      <point x="230" y="29"/>
      <point x="232" y="29" type="curve"/>
      <point x="253" y="2"/>
      <point x="306" y="-14"/>
      <point x="334" y="-14" type="curve" smooth="yes"/>
      <point x="463" y="-14"/>
      <point x="563" y="120"/>
      <point x="563" y="253" type="curve" smooth="yes"/>
      <point x="563" y="358"/>
      <point x="501" y="464"/>
      <point x="397" y="465" type="curve" smooth="yes"/>
      <point x="331" y="465"/>
      <point x="252" y="427"/>
      <point x="231" y="402" type="curve"/>
      <point x="231" y="409"/>
      <point x="231" y="412"/>
      <point x="231" y="417" type="curve" smooth="yes"/>
      <point x="231" y="427"/>
      <point x="235" y="457"/>
      <point x="235" y="469" type="curve" smooth="yes"/>
      <point x="235" y="474"/>
      <point x="233" y="479"/>
      <point x="227" y="479" type="curve" smooth="yes"/>
      <point x="223" y="479"/>
      <point x="220" y="477"/>
      <point x="218" y="474" type="curve"/>
      <point x="168" y="463"/>
      <point x="117" y="453"/>
      <point x="45" y="440" type="curve" smooth="yes"/>
      <point x="30" y="437"/>
      <point x="20" y="428"/>
      <point x="20" y="417" type="curve" smooth="yes"/>
      <point x="20" y="405"/>
      <point x="28" y="398"/>
      <point x="41" y="392" type="curve" smooth="yes"/>
      <point x="51" y="385"/>
      <point x="53" y="358"/>
      <point x="53" y="331" type="curve" smooth="yes"/>
      <point x="53" y="-190" type="line" smooth="yes"/>
      <point x="53" y="-220"/>
      <point x="39" y="-233"/>
      <point x="24" y="-241" type="curve"/>
      <point x="17" y="-246"/>
      <point x="11" y="-253"/>
      <point x="11" y="-261" type="curve" smooth="yes"/>
      <point x="11" y="-279"/>
      <point x="21" y="-285"/>
    </contour>
    <contour>
      <point x="303" y="44" type="curve" smooth="yes"/>
      <point x="252" y="44"/>
      <point x="230" y="83"/>
      <point x="230" y="189" type="curve" smooth="yes"/>
      <point x="230" y="212"/>
      <point x="232" y="279"/>
      <point x="232" y="337" type="curve" smooth="yes"/>
      <point x="232" y="348"/>
      <point x="271" y="377"/>
      <point x="300" y="377" type="curve" smooth="yes"/>
      <point x="358" y="377"/>
      <point x="383" y="333"/>
      <point x="383" y="215" type="curve" smooth="yes"/>
      <point x="383" y="85"/>
      <point x="327" y="44"/>
    </contour>
  </outline>
</glyph>
<glyph name="s" format="1">
  <advance width="374"/>
  <unicode hex="0073"/>
  <outline>
    <contour>
      <point x="162" y="-14" type="curve" smooth="yes"/>
      <point x="281" y="-14"/>
      <point x="352" y="39"/>
      <point x="352" y="118" type="curve" smooth="yes"/>
      <point x="352" y="188"/>
      <point x="324" y="219"/>
      <point x="276" y="263" type="curve" smooth="yes"/>
      <point x="238" y="304"/>
      <point x="232" y="321"/>
      <point x="232" y="356" type="curve" smooth="yes"/>
      <point x="232" y="392"/>
      <point x="245" y="412"/>
      <point x="263" y="412" type="curve" smooth="yes"/>
      <point x="287" y="412"/>
      <point x="297" y="393"/>
      <point x="307" y="358" type="curve" smooth="yes"/>
      <point x="310" y="350"/>
      <point x="319" y="347"/>
      <point x="328" y="347" type="curve" smooth="yes"/>
      <point x="335" y="347"/>
      <point x="342" y="353"/>
      <point x="342" y="357" type="curve" smooth="yes"/>
      <point x="342" y="386"/>
      <point x="333" y="430"/>
      <point x="326" y="445" type="curve"/>
      <point x="308" y="454"/>
      <point x="272" y="464"/>
      <point x="219" y="464" type="curve" smooth="yes"/>
      <point x="89" y="464"/>
      <point x="37" y="411"/>
      <point x="37" y="338" type="curve" smooth="yes"/>
      <point x="37" y="282"/>
      <point x="52" y="242"/>
      <point x="102" y="200" type="curve" smooth="yes"/>
      <point x="141" y="163"/>
      <point x="151" y="135"/>
      <point x="151" y="99" type="curve" smooth="yes"/>
      <point x="151" y="64"/>
      <point x="133" y="41"/>
      <point x="110" y="41" type="curve" smooth="yes"/>
      <point x="84" y="41"/>
      <point x="66" y="55"/>
      <point x="60" y="105" type="curve"/>
      <point x="57" y="118"/>
      <point x="49" y="120"/>
      <point x="39" y="120" type="curve" smooth="yes"/>
      <point x="27" y="120"/>
      <point x="19" y="117"/>
      <point x="19" y="107" type="curve"/>
      <point x="20" y="79"/>
      <point x="21" y="36"/>
      <point x="27" y="22" type="curve"/>
      <point x="60" y="-1"/>
      <point x="109" y="-14"/>
    </contour>
  </outline>
</glyph>
<glyph name="t" format="1">
  <advance width="350"/>
  <unicode hex="0074"/>
  <outline>
    <contour>
      <point x="197" y="-14" type="curve" smooth="yes"/>
      <point x="275" y="-14"/>
      <point x="342" y="31"/>
      <point x="342" y="49" type="curve" smooth="yes"/>
      <point x="342" y="65"/>
      <point x="333" y="76"/>
      <point x="326" y="76" type="curve" smooth="yes"/>
      <point x="319" y="76"/>
      <point x="316" y="70"/>
      <point x="308" y="65" type="curve" smooth="yes"/>
      <point x="303" y="64"/>
      <point x="297" y="58"/>
      <point x="288" y="58" type="curve" smooth="yes"/>
      <point x="261" y="58"/>
      <point x="246" y="78"/>
      <point x="246" y="121" type="curve" smooth="yes"/>
      <point x="246" y="357" type="line" smooth="yes"/>
      <point x="246" y="382"/>
      <point x="250" y="385"/>
      <point x="271" y="385" type="curve" smooth="yes"/>
      <point x="335" y="385" type="line" smooth="yes"/>
      <point x="338" y="385"/>
      <point x="341" y="398"/>
      <point x="341" y="419" type="curve" smooth="yes"/>
      <point x="341" y="433"/>
      <point x="338" y="450"/>
      <point x="335" y="450" type="curve" smooth="yes"/>
      <point x="262" y="450" type="line" smooth="yes"/>
      <point x="251" y="450"/>
      <point x="245" y="454"/>
      <point x="247" y="469" type="curve" smooth="yes"/>
      <point x="247" y="495" type="line" smooth="yes"/>
      <point x="249" y="516"/>
      <point x="240" y="525"/>
      <point x="220" y="525" type="curve" smooth="yes"/>
      <point x="201" y="525"/>
      <point x="190" y="518"/>
      <point x="171" y="502" type="curve" smooth="yes"/>
      <point x="149" y="482"/>
      <point x="104" y="452"/>
      <point x="62" y="439" type="curve" smooth="yes"/>
      <point x="46" y="422"/>
      <point x="35" y="411"/>
      <point x="35" y="405" type="curve" smooth="yes"/>
      <point x="35" y="394"/>
      <point x="38" y="385"/>
      <point x="42" y="385" type="curve" smooth="yes"/>
      <point x="54" y="385" type="line"/>
      <point x="63" y="385"/>
      <point x="70" y="376"/>
      <point x="70" y="361" type="curve" smooth="yes"/>
      <point x="70" y="96" type="line" smooth="yes"/>
      <point x="70" y="21"/>
      <point x="121" y="-14"/>
    </contour>
  </outline>
</glyph>
<glyph name="w" format="1">
  <advance width="717"/>
  <unicode hex="0077"/>
  <outline>
    <contour>
      <point x="214" y="-23" type="curve" smooth="yes"/>
      <point x="247" y="-23"/>
      <point x="275" y="-20"/>
      <point x="295" y="-16" type="curve"/>
      <point x="361" y="272" type="line" smooth="yes"/>
      <point x="363" y="279"/>
      <point x="364" y="282"/>
      <point x="365" y="282" type="curve" smooth="yes"/>
      <point x="367" y="283"/>
      <point x="367" y="278"/>
      <point x="369" y="273" type="curve" smooth="yes"/>
      <point x="429" y="-16" type="line"/>
      <point x="447" y="-20"/>
      <point x="474" y="-23"/>
      <point x="499" y="-23" type="curve" smooth="yes"/>
      <point x="535" y="-23"/>
      <point x="562" y="-20"/>
      <point x="579" y="-16" type="curve"/>
      <point x="666" y="349" type="line" smooth="yes"/>
      <point x="673" y="380"/>
      <point x="695" y="399"/>
      <point x="706" y="407" type="curve"/>
      <point x="718" y="415"/>
      <point x="721" y="423"/>
      <point x="721" y="439" type="curve" smooth="yes"/>
      <point x="721" y="453"/>
      <point x="714" y="455"/>
      <point x="708" y="455" type="curve" smooth="yes"/>
      <point x="696" y="455"/>
      <point x="684" y="450"/>
      <point x="662" y="450" type="curve" smooth="yes"/>
      <point x="640" y="450"/>
      <point x="621" y="455"/>
      <point x="614" y="455" type="curve" smooth="yes"/>
      <point x="608" y="455"/>
      <point x="601" y="453"/>
      <point x="601" y="439" type="curve" smooth="yes"/>
      <point x="601" y="423"/>
      <point x="601" y="419"/>
      <point x="614" y="409" type="curve" smooth="yes"/>
      <point x="618" y="404"/>
      <point x="615" y="396"/>
      <point x="615" y="378" type="curve" smooth="yes"/>
      <point x="615" y="369"/>
      <point x="613" y="356"/>
      <point x="610" y="341" type="curve" smooth="yes"/>
      <point x="576" y="152" type="line" smooth="yes"/>
      <point x="575" y="145"/>
      <point x="573" y="142"/>
      <point x="571" y="142" type="curve" smooth="yes"/>
      <point x="570" y="142"/>
      <point x="567" y="146"/>
      <point x="566" y="153" type="curve" smooth="yes"/>
      <point x="541" y="324" type="line" smooth="yes"/>
      <point x="539" y="336"/>
      <point x="536" y="348"/>
      <point x="536" y="356" type="curve" smooth="yes"/>
      <point x="536" y="387"/>
      <point x="542" y="398"/>
      <point x="557" y="407" type="curve" smooth="yes"/>
      <point x="563" y="412"/>
      <point x="567" y="418"/>
      <point x="567" y="435" type="curve" smooth="yes"/>
      <point x="567" y="449"/>
      <point x="556" y="454"/>
      <point x="542" y="454" type="curve" smooth="yes"/>
      <point x="498" y="454"/>
      <point x="478" y="445"/>
      <point x="428" y="449" type="curve" smooth="yes"/>
      <point x="380" y="453"/>
      <point x="363" y="454"/>
      <point x="321" y="454" type="curve" smooth="yes"/>
      <point x="307" y="454"/>
      <point x="294" y="449"/>
      <point x="294" y="435" type="curve" smooth="yes"/>
      <point x="294" y="423"/>
      <point x="302" y="418"/>
      <point x="307" y="414" type="curve" smooth="yes"/>
      <point x="323" y="403"/>
      <point x="327" y="399"/>
      <point x="327" y="382" type="curve" smooth="yes"/>
      <point x="327" y="369"/>
      <point x="325" y="355"/>
      <point x="322" y="332" type="curve" smooth="yes"/>
      <point x="287" y="149" type="line" smooth="yes"/>
      <point x="287" y="146"/>
      <point x="285" y="145"/>
      <point x="284" y="145" type="curve" smooth="yes"/>
      <point x="282" y="145"/>
      <point x="281" y="146"/>
      <point x="280" y="149" type="curve" smooth="yes"/>
      <point x="248" y="343" type="line" smooth="yes"/>
      <point x="247" y="351"/>
      <point x="247" y="361"/>
      <point x="247" y="370" type="curve" smooth="yes"/>
      <point x="247" y="387"/>
      <point x="249" y="403"/>
      <point x="253" y="408" type="curve"/>
      <point x="258" y="414"/>
      <point x="264" y="421"/>
      <point x="264" y="439" type="curve" smooth="yes"/>
      <point x="264" y="453"/>
      <point x="247" y="455"/>
      <point x="237" y="455" type="curve" smooth="yes"/>
      <point x="191" y="455"/>
      <point x="176" y="449"/>
      <point x="134" y="449" type="curve" smooth="yes"/>
      <point x="92" y="449"/>
      <point x="80" y="455"/>
      <point x="36" y="455" type="curve" smooth="yes"/>
      <point x="27" y="455"/>
      <point x="10" y="453"/>
      <point x="10" y="439" type="curve" smooth="yes"/>
      <point x="10" y="423"/>
      <point x="14" y="419"/>
      <point x="26" y="413" type="curve"/>
      <point x="37" y="406"/>
      <point x="53" y="390"/>
      <point x="62" y="356" type="curve" smooth="yes"/>
      <point x="140" y="-16" type="line"/>
      <point x="152" y="-20"/>
      <point x="186" y="-23"/>
    </contour>
  </outline>
</glyph>
<glyph name="x" format="1">
  <advance width="430"/>
  <unicode hex="0078"/>
  <outline>
    <contour>
      <point x="20" y="-6" type="curve" smooth="yes"/>
      <point x="31" y="-6"/>
      <point x="46" y="2"/>
      <point x="72" y="2" type="curve" smooth="yes"/>
      <point x="83" y="2"/>
      <point x="99" y="-3"/>
      <point x="105" y="-3" type="curve" smooth="yes"/>
      <point x="109" y="-3"/>
      <point x="121" y="0"/>
      <point x="121" y="18" type="curve" smooth="yes"/>
      <point x="121" y="36"/>
      <point x="117" y="40"/>
      <point x="111" y="44" type="curve"/>
      <point x="108" y="46"/>
      <point x="105" y="51"/>
      <point x="105" y="57" type="curve" smooth="yes"/>
      <point x="105" y="63"/>
      <point x="110" y="73"/>
      <point x="116" y="85" type="curve" smooth="yes"/>
      <point x="139" y="182" type="line" smooth="yes"/>
      <point x="141" y="188"/>
      <point x="143" y="190"/>
      <point x="146" y="183" type="curve" smooth="yes"/>
      <point x="173" y="86" type="line" smooth="yes"/>
      <point x="176" y="78"/>
      <point x="177" y="72"/>
      <point x="177" y="67" type="curve" smooth="yes"/>
      <point x="177" y="55"/>
      <point x="173" y="49"/>
      <point x="168" y="45" type="curve" smooth="yes"/>
      <point x="158" y="38"/>
      <point x="153" y="35"/>
      <point x="153" y="17" type="curve" smooth="yes"/>
      <point x="153" y="3"/>
      <point x="162" y="-3"/>
      <point x="180" y="-3" type="curve" smooth="yes"/>
      <point x="222" y="-3"/>
      <point x="256" y="6"/>
      <point x="295" y="6" type="curve" smooth="yes"/>
      <point x="345" y="6"/>
      <point x="354" y="-3"/>
      <point x="404" y="-3" type="curve" smooth="yes"/>
      <point x="418" y="-3"/>
      <point x="429" y="2"/>
      <point x="429" y="16" type="curve" smooth="yes"/>
      <point x="429" y="31"/>
      <point x="425" y="39"/>
      <point x="411" y="44" type="curve" smooth="yes"/>
      <point x="394" y="51"/>
      <point x="378" y="57"/>
      <point x="368" y="86" type="curve" smooth="yes"/>
      <point x="330" y="221" type="line" smooth="yes"/>
      <point x="330" y="227"/>
      <point x="329" y="232"/>
      <point x="330" y="235" type="curve" smooth="yes"/>
      <point x="377" y="367" type="line" smooth="yes"/>
      <point x="386" y="396"/>
      <point x="400" y="409"/>
      <point x="408" y="415" type="curve"/>
      <point x="416" y="420"/>
      <point x="422" y="427"/>
      <point x="422" y="443" type="curve" smooth="yes"/>
      <point x="422" y="456"/>
      <point x="414" y="457"/>
      <point x="408" y="457" type="curve" smooth="yes"/>
      <point x="397" y="457"/>
      <point x="381" y="449"/>
      <point x="355" y="449" type="curve" smooth="yes"/>
      <point x="344" y="449"/>
      <point x="328" y="454"/>
      <point x="321" y="454" type="curve" smooth="yes"/>
      <point x="317" y="454"/>
      <point x="305" y="451"/>
      <point x="305" y="432" type="curve" smooth="yes"/>
      <point x="305" y="415"/>
      <point x="309" y="411"/>
      <point x="315" y="407" type="curve"/>
      <point x="318" y="405"/>
      <point x="321" y="398"/>
      <point x="321" y="391" type="curve" smooth="yes"/>
      <point x="321" y="384"/>
      <point x="317" y="375"/>
      <point x="313" y="364" type="curve"/>
      <point x="298" y="291" type="line" smooth="yes"/>
      <point x="297" y="287"/>
      <point x="294" y="286"/>
      <point x="292" y="291" type="curve" smooth="yes"/>
      <point x="271" y="365" type="line"/>
      <point x="269" y="373"/>
      <point x="270" y="381"/>
      <point x="270" y="387" type="curve" smooth="yes"/>
      <point x="270" y="399"/>
      <point x="275" y="404"/>
      <point x="281" y="407" type="curve" smooth="yes"/>
      <point x="292" y="411"/>
      <point x="297" y="417"/>
      <point x="297" y="434" type="curve" smooth="yes"/>
      <point x="297" y="449"/>
      <point x="280" y="454"/>
      <point x="268" y="454" type="curve" smooth="yes"/>
      <point x="224" y="454"/>
      <point x="202" y="445"/>
      <point x="161" y="445" type="curve" smooth="yes"/>
      <point x="107" y="445"/>
      <point x="98" y="454"/>
      <point x="45" y="454" type="curve" smooth="yes"/>
      <point x="32" y="454"/>
      <point x="17" y="449"/>
      <point x="17" y="435" type="curve" smooth="yes"/>
      <point x="17" y="420"/>
      <point x="21" y="412"/>
      <point x="34" y="406" type="curve" smooth="yes"/>
      <point x="51" y="400"/>
      <point x="68" y="393"/>
      <point x="79" y="364" type="curve" smooth="yes"/>
      <point x="109" y="251" type="line" smooth="yes"/>
      <point x="110" y="246"/>
      <point x="109" y="240"/>
      <point x="111" y="239" type="curve"/>
      <point x="58" y="80" type="line" smooth="yes"/>
      <point x="53" y="55"/>
      <point x="29" y="43"/>
      <point x="21" y="36" type="curve" smooth="yes"/>
      <point x="13" y="30"/>
      <point x="7" y="24"/>
      <point x="7" y="8" type="curve" smooth="yes"/>
      <point x="7" y="-5"/>
      <point x="15" y="-6"/>
    </contour>
  </outline>
</glyph>
<glyph name="y" format="1">
  <advance width="428"/>
  <unicode hex="0079"/>
  <outline>
    <contour>
      <point x="160" y="-285" type="curve" smooth="yes"/>
      <point x="206" y="-285"/>
      <point x="230" y="-267"/>
      <point x="241" y="-230" type="curve"/>
      <point x="379" y="349" type="line"/>
      <point x="386" y="382"/>
      <point x="409" y="400"/>
      <point x="419" y="408" type="curve"/>
      <point x="436" y="418"/>
      <point x="433" y="425"/>
      <point x="433" y="440" type="curve" smooth="yes"/>
      <point x="433" y="454"/>
      <point x="429" y="456"/>
      <point x="418" y="456" type="curve" smooth="yes"/>
      <point x="409" y="456"/>
      <point x="399" y="451"/>
      <point x="376" y="451" type="curve" smooth="yes"/>
      <point x="355" y="451"/>
      <point x="330" y="456"/>
      <point x="322" y="456" type="curve" smooth="yes"/>
      <point x="314" y="456"/>
      <point x="309" y="456"/>
      <point x="309" y="442" type="curve" smooth="yes"/>
      <point x="309" y="427"/>
      <point x="297" y="431"/>
      <point x="316" y="419" type="curve" smooth="yes"/>
      <point x="329" y="413"/>
      <point x="329" y="404"/>
      <point x="329" y="387" type="curve" smooth="yes"/>
      <point x="329" y="374"/>
      <point x="328" y="362"/>
      <point x="325" y="346" type="curve"/>
      <point x="283" y="153" type="line" smooth="yes"/>
      <point x="282" y="152"/>
      <point x="282" y="153"/>
      <point x="283" y="153" type="curve" smooth="yes"/>
      <point x="284" y="153"/>
      <point x="284" y="151"/>
      <point x="283" y="154" type="curve" smooth="yes"/>
      <point x="244" y="341" type="line" smooth="yes"/>
      <point x="242" y="350"/>
      <point x="246" y="357"/>
      <point x="246" y="367" type="curve" smooth="yes"/>
      <point x="246" y="385"/>
      <point x="248" y="409"/>
      <point x="255" y="416" type="curve" smooth="yes"/>
      <point x="264" y="423"/>
      <point x="263" y="424"/>
      <point x="263" y="442" type="curve" smooth="yes"/>
      <point x="263" y="456"/>
      <point x="245" y="456"/>
      <point x="236" y="456" type="curve" smooth="yes"/>
      <point x="183" y="456"/>
      <point x="181" y="450"/>
      <point x="133" y="450" type="curve" smooth="yes"/>
      <point x="84" y="450"/>
      <point x="85" y="456"/>
      <point x="32" y="456" type="curve" smooth="yes"/>
      <point x="23" y="456"/>
      <point x="5" y="454"/>
      <point x="5" y="440" type="curve" smooth="yes"/>
      <point x="5" y="425"/>
      <point x="3" y="423"/>
      <point x="15" y="417" type="curve"/>
      <point x="26" y="408"/>
      <point x="48" y="390"/>
      <point x="59" y="357" type="curve" smooth="yes"/>
      <point x="211" y="-48" type="line" smooth="yes"/>
      <point x="216" y="-64"/>
      <point x="216" y="-73"/>
      <point x="216" y="-84" type="curve" smooth="yes"/>
      <point x="216" y="-92"/>
      <point x="216" y="-102"/>
      <point x="215" y="-112" type="curve" smooth="yes"/>
      <point x="216" y="-174" type="line" smooth="yes"/>
      <point x="211" y="-196"/>
      <point x="196" y="-202"/>
      <point x="188" y="-202" type="curve" smooth="yes"/>
      <point x="174" y="-202"/>
      <point x="168" y="-170"/>
      <point x="129" y="-170" type="curve" smooth="yes"/>
      <point x="101" y="-170"/>
      <point x="79" y="-193"/>
      <point x="79" y="-230" type="curve" smooth="yes"/>
      <point x="79" y="-268"/>
      <point x="119" y="-285"/>
    </contour>
  </outline>
</glyph>
<glyph name="z" format="1">
  <advance width="388"/>
  <unicode hex="007A"/>
  <outline>
    <contour>
      <point x="26" y="-5" type="curve" smooth="yes"/>
      <point x="45" y="-5"/>
      <point x="80" y="0"/>
      <point x="111" y="0" type="curve" smooth="yes"/>
      <point x="230" y="0"/>
      <point x="320" y="-5"/>
      <point x="352" y="-5" type="curve" smooth="yes"/>
      <point x="357" y="-5"/>
      <point x="361" y="0"/>
      <point x="362" y="9" type="curve" smooth="yes"/>
      <point x="365" y="25"/>
      <point x="381" y="131"/>
      <point x="381" y="139" type="curve" smooth="yes"/>
      <point x="381" y="162"/>
      <point x="356" y="161"/>
      <point x="348" y="146" type="curve" smooth="yes"/>
      <point x="338" y="118"/>
      <point x="325" y="95"/>
      <point x="317" y="78" type="curve" smooth="yes"/>
      <point x="308" y="62"/>
      <point x="298" y="57"/>
      <point x="288" y="57" type="curve" smooth="yes"/>
      <point x="244" y="57" type="line" smooth="yes"/>
      <point x="239" y="57"/>
      <point x="235" y="61"/>
      <point x="239" y="72" type="curve" smooth="yes"/>
      <point x="346" y="377" type="line" smooth="yes"/>
      <point x="353" y="397"/>
      <point x="362" y="411"/>
      <point x="370" y="426" type="curve"/>
      <point x="377" y="436"/>
      <point x="371" y="456"/>
      <point x="357" y="456" type="curve" smooth="yes"/>
      <point x="297" y="453"/>
      <point x="237" y="453"/>
      <point x="163" y="453" type="curve" smooth="yes"/>
      <point x="153" y="453"/>
      <point x="131" y="452"/>
      <point x="115" y="452" type="curve" smooth="yes"/>
      <point x="95" y="452"/>
      <point x="74" y="453"/>
      <point x="68" y="458" type="curve" smooth="yes"/>
      <point x="61" y="463"/>
      <point x="51" y="467"/>
      <point x="47" y="467" type="curve" smooth="yes"/>
      <point x="43" y="467"/>
      <point x="36" y="459"/>
      <point x="36" y="449" type="curve" smooth="yes"/>
      <point x="36" y="424"/>
      <point x="22" y="361"/>
      <point x="18" y="343" type="curve" smooth="yes"/>
      <point x="10" y="320"/>
      <point x="44" y="315"/>
      <point x="58" y="333" type="curve" smooth="yes"/>
      <point x="65" y="349"/>
      <point x="78" y="371"/>
      <point x="88" y="383" type="curve" smooth="yes"/>
      <point x="94" y="390"/>
      <point x="103" y="400"/>
      <point x="114" y="399" type="curve" smooth="yes"/>
      <point x="142" y="398" type="line" smooth="yes"/>
      <point x="152" y="398"/>
      <point x="150" y="391"/>
      <point x="148" y="387" type="curve"/>
      <point x="119" y="299"/>
      <point x="76" y="192"/>
      <point x="42" y="94" type="curve" smooth="yes"/>
      <point x="30" y="68"/>
      <point x="12" y="26"/>
      <point x="12" y="23" type="curve" smooth="yes"/>
      <point x="12" y="12"/>
      <point x="17" y="-5"/>
    </contour>
  </outline>
</glyph>
<glyph name="braceleft" format="1">
  <advance width="340"/>
  <unicode hex="007B"/>
  <outline>
    <contour>
      <point x="282" y="-157" type="curve" smooth="yes"/>
      <point x="307" y="-158"/>
      <point x="319" y="-143"/>
      <point x="319" y="-124" type="curve" smooth="yes"/>
      <point x="319" y="-101"/>
      <point x="305" y="-92"/>
      <point x="284" y="-89" type="curve" smooth="yes"/>
      <point x="258" y="-83"/>
      <point x="235" y="-73"/>
      <point x="235" y="-8" type="curve" smooth="yes"/>
      <point x="235" y="56"/>
      <point x="244" y="101"/>
      <point x="244" y="156" type="curve" smooth="yes"/>
      <point x="244" y="219"/>
      <point x="222" y="271"/>
      <point x="152" y="280" type="curve"/>
      <point x="150" y="281"/>
      <point x="147" y="282"/>
      <point x="151" y="284" type="curve"/>
      <point x="221" y="295"/>
      <point x="244" y="345"/>
      <point x="244" y="408" type="curve" smooth="yes"/>
      <point x="244" y="461"/>
      <point x="235" y="504"/>
      <point x="235" y="566" type="curve" smooth="yes"/>
      <point x="235" y="631"/>
      <point x="256" y="642"/>
      <point x="282" y="646" type="curve" smooth="yes"/>
      <point x="303" y="649"/>
      <point x="317" y="659"/>
      <point x="317" y="681" type="curve" smooth="yes"/>
      <point x="317" y="700"/>
      <point x="305" y="715"/>
      <point x="280" y="714" type="curve" smooth="yes"/>
      <point x="192" y="711"/>
      <point x="97" y="678"/>
      <point x="97" y="582" type="curve" smooth="yes"/>
      <point x="97" y="514"/>
      <point x="104" y="469"/>
      <point x="104" y="409" type="curve" smooth="yes"/>
      <point x="104" y="353"/>
      <point x="93" y="336"/>
      <point x="69" y="327" type="curve" smooth="yes"/>
      <point x="34" y="317"/>
      <point x="28" y="303"/>
      <point x="28" y="282" type="curve" smooth="yes"/>
      <point x="28" y="259"/>
      <point x="35" y="247"/>
      <point x="69" y="239" type="curve" smooth="yes"/>
      <point x="96" y="232"/>
      <point x="104" y="217"/>
      <point x="104" y="159" type="curve" smooth="yes"/>
      <point x="104" y="97"/>
      <point x="97" y="51"/>
      <point x="97" y="-24" type="curve" smooth="yes"/>
      <point x="97" y="-121"/>
      <point x="193" y="-153"/>
    </contour>
  </outline>
</glyph>
<glyph name="asciitilde" format="1">
  <advance width="322"/>
  <unicode hex="007E"/>
  <outline>
    <contour>
      <point x="215" y="288" type="curve" smooth="yes"/>
      <point x="250" y="288"/>
      <point x="300" y="347"/>
      <point x="300" y="384" type="curve" smooth="yes"/>
      <point x="300" y="409"/>
      <point x="291" y="422"/>
      <point x="276" y="422" type="curve" smooth="yes"/>
      <point x="273" y="422"/>
      <point x="248" y="359"/>
      <point x="219" y="359" type="curve" smooth="yes"/>
      <point x="207" y="359"/>
      <point x="193" y="373"/>
      <point x="176" y="387" type="curve" smooth="yes"/>
      <point x="158" y="405"/>
      <point x="137" y="421"/>
      <point x="111" y="421" type="curve" smooth="yes"/>
      <point x="60" y="421"/>
      <point x="24" y="346"/>
      <point x="24" y="324" type="curve" smooth="yes"/>
      <point x="24" y="306"/>
      <point x="31" y="293"/>
      <point x="46" y="293" type="curve" smooth="yes"/>
      <point x="49" y="293"/>
      <point x="71" y="348"/>
      <point x="103" y="348" type="curve" smooth="yes"/>
      <point x="119" y="348"/>
      <point x="134" y="335"/>
      <point x="151" y="322" type="curve" smooth="yes"/>
      <point x="170" y="304"/>
      <point x="191" y="288"/>
    </contour>
  </outline>
</glyph>
